G04 EAGLE Gerber X2 export*
%TF.Part,Single*%
%TF.FileFunction,Other,Slot drills/holes*%
%TF.FilePolarity,Positive*%
%TF.GenerationSoftware,Autodesk,EAGLE,8.7.1*%
%TF.CreationDate,2018-04-15T22:34:25Z*%
G75*
%MOMM*%
%FSLAX34Y34*%
%LPD*%
%AMOC8*
5,1,8,0,0,1.08239X$1,22.5*%
G01*
%ADD10C,0.000000*%


D10*
X0Y0D02*
X500000Y0D01*
X500000Y500000D01*
X0Y500000D01*
X0Y0D01*
X82400Y437090D02*
X82402Y437224D01*
X82408Y437358D01*
X82418Y437491D01*
X82432Y437625D01*
X82450Y437758D01*
X82472Y437890D01*
X82497Y438021D01*
X82527Y438152D01*
X82561Y438282D01*
X82598Y438410D01*
X82639Y438538D01*
X82684Y438664D01*
X82733Y438789D01*
X82785Y438912D01*
X82841Y439034D01*
X82901Y439154D01*
X82964Y439272D01*
X83031Y439388D01*
X83101Y439502D01*
X83175Y439614D01*
X83252Y439724D01*
X83332Y439832D01*
X83415Y439937D01*
X83501Y440039D01*
X83590Y440139D01*
X83683Y440236D01*
X83778Y440331D01*
X83876Y440422D01*
X83976Y440511D01*
X84079Y440596D01*
X84185Y440679D01*
X84293Y440758D01*
X84403Y440834D01*
X84516Y440907D01*
X84631Y440976D01*
X84747Y441042D01*
X84866Y441104D01*
X84986Y441163D01*
X85109Y441218D01*
X85232Y441270D01*
X85357Y441317D01*
X85484Y441361D01*
X85612Y441402D01*
X85741Y441438D01*
X85871Y441471D01*
X86002Y441499D01*
X86133Y441524D01*
X86266Y441545D01*
X86399Y441562D01*
X86532Y441575D01*
X86666Y441584D01*
X86800Y441589D01*
X86934Y441590D01*
X87067Y441587D01*
X87201Y441580D01*
X87335Y441569D01*
X87468Y441554D01*
X87601Y441535D01*
X87733Y441512D01*
X87864Y441486D01*
X87994Y441455D01*
X88124Y441420D01*
X88252Y441382D01*
X88379Y441340D01*
X88505Y441294D01*
X88630Y441244D01*
X88753Y441191D01*
X88874Y441134D01*
X88994Y441073D01*
X89111Y441009D01*
X89227Y440942D01*
X89341Y440871D01*
X89452Y440796D01*
X89561Y440719D01*
X89668Y440638D01*
X89773Y440554D01*
X89874Y440467D01*
X89974Y440377D01*
X90070Y440284D01*
X90164Y440188D01*
X90255Y440089D01*
X90342Y439988D01*
X90427Y439884D01*
X90509Y439778D01*
X90587Y439670D01*
X90662Y439559D01*
X90734Y439446D01*
X90803Y439330D01*
X90868Y439213D01*
X90929Y439094D01*
X90987Y438973D01*
X91041Y438851D01*
X91092Y438727D01*
X91139Y438601D01*
X91182Y438474D01*
X91221Y438346D01*
X91257Y438217D01*
X91288Y438087D01*
X91316Y437956D01*
X91340Y437824D01*
X91360Y437691D01*
X91376Y437558D01*
X91388Y437425D01*
X91396Y437291D01*
X91400Y437157D01*
X91400Y437023D01*
X91396Y436889D01*
X91388Y436755D01*
X91376Y436622D01*
X91360Y436489D01*
X91340Y436356D01*
X91316Y436224D01*
X91288Y436093D01*
X91257Y435963D01*
X91221Y435834D01*
X91182Y435706D01*
X91139Y435579D01*
X91092Y435453D01*
X91041Y435329D01*
X90987Y435207D01*
X90929Y435086D01*
X90868Y434967D01*
X90803Y434850D01*
X90734Y434734D01*
X90662Y434621D01*
X90587Y434510D01*
X90509Y434402D01*
X90427Y434296D01*
X90342Y434192D01*
X90255Y434091D01*
X90164Y433992D01*
X90070Y433896D01*
X89974Y433803D01*
X89874Y433713D01*
X89773Y433626D01*
X89668Y433542D01*
X89561Y433461D01*
X89452Y433384D01*
X89341Y433309D01*
X89227Y433238D01*
X89111Y433171D01*
X88994Y433107D01*
X88874Y433046D01*
X88753Y432989D01*
X88630Y432936D01*
X88505Y432886D01*
X88379Y432840D01*
X88252Y432798D01*
X88124Y432760D01*
X87994Y432725D01*
X87864Y432694D01*
X87733Y432668D01*
X87601Y432645D01*
X87468Y432626D01*
X87335Y432611D01*
X87201Y432600D01*
X87067Y432593D01*
X86934Y432590D01*
X86800Y432591D01*
X86666Y432596D01*
X86532Y432605D01*
X86399Y432618D01*
X86266Y432635D01*
X86133Y432656D01*
X86002Y432681D01*
X85871Y432709D01*
X85741Y432742D01*
X85612Y432778D01*
X85484Y432819D01*
X85357Y432863D01*
X85232Y432910D01*
X85109Y432962D01*
X84986Y433017D01*
X84866Y433076D01*
X84747Y433138D01*
X84631Y433204D01*
X84516Y433273D01*
X84403Y433346D01*
X84293Y433422D01*
X84185Y433501D01*
X84079Y433584D01*
X83976Y433669D01*
X83876Y433758D01*
X83778Y433849D01*
X83683Y433944D01*
X83590Y434041D01*
X83501Y434141D01*
X83415Y434243D01*
X83332Y434348D01*
X83252Y434456D01*
X83175Y434566D01*
X83101Y434678D01*
X83031Y434792D01*
X82964Y434908D01*
X82901Y435026D01*
X82841Y435146D01*
X82785Y435268D01*
X82733Y435391D01*
X82684Y435516D01*
X82639Y435642D01*
X82598Y435770D01*
X82561Y435898D01*
X82527Y436028D01*
X82497Y436159D01*
X82472Y436290D01*
X82450Y436422D01*
X82432Y436555D01*
X82418Y436689D01*
X82408Y436822D01*
X82402Y436956D01*
X82400Y437090D01*
X38400Y437090D02*
X38402Y437224D01*
X38408Y437358D01*
X38418Y437491D01*
X38432Y437625D01*
X38450Y437758D01*
X38472Y437890D01*
X38497Y438021D01*
X38527Y438152D01*
X38561Y438282D01*
X38598Y438410D01*
X38639Y438538D01*
X38684Y438664D01*
X38733Y438789D01*
X38785Y438912D01*
X38841Y439034D01*
X38901Y439154D01*
X38964Y439272D01*
X39031Y439388D01*
X39101Y439502D01*
X39175Y439614D01*
X39252Y439724D01*
X39332Y439832D01*
X39415Y439937D01*
X39501Y440039D01*
X39590Y440139D01*
X39683Y440236D01*
X39778Y440331D01*
X39876Y440422D01*
X39976Y440511D01*
X40079Y440596D01*
X40185Y440679D01*
X40293Y440758D01*
X40403Y440834D01*
X40516Y440907D01*
X40631Y440976D01*
X40747Y441042D01*
X40866Y441104D01*
X40986Y441163D01*
X41109Y441218D01*
X41232Y441270D01*
X41357Y441317D01*
X41484Y441361D01*
X41612Y441402D01*
X41741Y441438D01*
X41871Y441471D01*
X42002Y441499D01*
X42133Y441524D01*
X42266Y441545D01*
X42399Y441562D01*
X42532Y441575D01*
X42666Y441584D01*
X42800Y441589D01*
X42934Y441590D01*
X43067Y441587D01*
X43201Y441580D01*
X43335Y441569D01*
X43468Y441554D01*
X43601Y441535D01*
X43733Y441512D01*
X43864Y441486D01*
X43994Y441455D01*
X44124Y441420D01*
X44252Y441382D01*
X44379Y441340D01*
X44505Y441294D01*
X44630Y441244D01*
X44753Y441191D01*
X44874Y441134D01*
X44994Y441073D01*
X45111Y441009D01*
X45227Y440942D01*
X45341Y440871D01*
X45452Y440796D01*
X45561Y440719D01*
X45668Y440638D01*
X45773Y440554D01*
X45874Y440467D01*
X45974Y440377D01*
X46070Y440284D01*
X46164Y440188D01*
X46255Y440089D01*
X46342Y439988D01*
X46427Y439884D01*
X46509Y439778D01*
X46587Y439670D01*
X46662Y439559D01*
X46734Y439446D01*
X46803Y439330D01*
X46868Y439213D01*
X46929Y439094D01*
X46987Y438973D01*
X47041Y438851D01*
X47092Y438727D01*
X47139Y438601D01*
X47182Y438474D01*
X47221Y438346D01*
X47257Y438217D01*
X47288Y438087D01*
X47316Y437956D01*
X47340Y437824D01*
X47360Y437691D01*
X47376Y437558D01*
X47388Y437425D01*
X47396Y437291D01*
X47400Y437157D01*
X47400Y437023D01*
X47396Y436889D01*
X47388Y436755D01*
X47376Y436622D01*
X47360Y436489D01*
X47340Y436356D01*
X47316Y436224D01*
X47288Y436093D01*
X47257Y435963D01*
X47221Y435834D01*
X47182Y435706D01*
X47139Y435579D01*
X47092Y435453D01*
X47041Y435329D01*
X46987Y435207D01*
X46929Y435086D01*
X46868Y434967D01*
X46803Y434850D01*
X46734Y434734D01*
X46662Y434621D01*
X46587Y434510D01*
X46509Y434402D01*
X46427Y434296D01*
X46342Y434192D01*
X46255Y434091D01*
X46164Y433992D01*
X46070Y433896D01*
X45974Y433803D01*
X45874Y433713D01*
X45773Y433626D01*
X45668Y433542D01*
X45561Y433461D01*
X45452Y433384D01*
X45341Y433309D01*
X45227Y433238D01*
X45111Y433171D01*
X44994Y433107D01*
X44874Y433046D01*
X44753Y432989D01*
X44630Y432936D01*
X44505Y432886D01*
X44379Y432840D01*
X44252Y432798D01*
X44124Y432760D01*
X43994Y432725D01*
X43864Y432694D01*
X43733Y432668D01*
X43601Y432645D01*
X43468Y432626D01*
X43335Y432611D01*
X43201Y432600D01*
X43067Y432593D01*
X42934Y432590D01*
X42800Y432591D01*
X42666Y432596D01*
X42532Y432605D01*
X42399Y432618D01*
X42266Y432635D01*
X42133Y432656D01*
X42002Y432681D01*
X41871Y432709D01*
X41741Y432742D01*
X41612Y432778D01*
X41484Y432819D01*
X41357Y432863D01*
X41232Y432910D01*
X41109Y432962D01*
X40986Y433017D01*
X40866Y433076D01*
X40747Y433138D01*
X40631Y433204D01*
X40516Y433273D01*
X40403Y433346D01*
X40293Y433422D01*
X40185Y433501D01*
X40079Y433584D01*
X39976Y433669D01*
X39876Y433758D01*
X39778Y433849D01*
X39683Y433944D01*
X39590Y434041D01*
X39501Y434141D01*
X39415Y434243D01*
X39332Y434348D01*
X39252Y434456D01*
X39175Y434566D01*
X39101Y434678D01*
X39031Y434792D01*
X38964Y434908D01*
X38901Y435026D01*
X38841Y435146D01*
X38785Y435268D01*
X38733Y435391D01*
X38684Y435516D01*
X38639Y435642D01*
X38598Y435770D01*
X38561Y435898D01*
X38527Y436028D01*
X38497Y436159D01*
X38472Y436290D01*
X38450Y436422D01*
X38432Y436555D01*
X38418Y436689D01*
X38408Y436822D01*
X38402Y436956D01*
X38400Y437090D01*
M02*
