G04 EAGLE Gerber X2 export*
G75*
%MOMM*%
%FSLAX34Y34*%
%LPD*%
%AMOC8*
5,1,8,0,0,1.08239X$1,22.5*%
G01*
%ADD10C,0.000000*%
%ADD11C,1.879600*%
%ADD12C,1.320800*%
%ADD13C,1.508000*%
%ADD14C,1.308000*%
%ADD15C,0.654800*%
%ADD16C,0.304800*%

G36*
X496210Y3052D02*
X496210Y3052D01*
X496229Y3050D01*
X496331Y3072D01*
X496433Y3088D01*
X496450Y3098D01*
X496470Y3102D01*
X496559Y3155D01*
X496650Y3204D01*
X496664Y3218D01*
X496681Y3228D01*
X496748Y3307D01*
X496820Y3382D01*
X496828Y3400D01*
X496841Y3415D01*
X496880Y3511D01*
X496923Y3605D01*
X496925Y3625D01*
X496933Y3643D01*
X496951Y3810D01*
X496951Y154662D01*
X496949Y154674D01*
X496951Y154686D01*
X496930Y154795D01*
X496912Y154905D01*
X496906Y154915D01*
X496904Y154927D01*
X496848Y155024D01*
X496796Y155122D01*
X496788Y155130D01*
X496782Y155141D01*
X496699Y155215D01*
X496618Y155292D01*
X496607Y155297D01*
X496598Y155305D01*
X496496Y155348D01*
X496395Y155395D01*
X496383Y155397D01*
X496372Y155401D01*
X496261Y155410D01*
X496151Y155422D01*
X496139Y155420D01*
X496127Y155421D01*
X496019Y155394D01*
X495910Y155370D01*
X495900Y155364D01*
X495888Y155361D01*
X495743Y155278D01*
X495207Y154889D01*
X493533Y154036D01*
X491746Y153455D01*
X490473Y153254D01*
X490473Y164338D01*
X490470Y164358D01*
X490472Y164377D01*
X490450Y164479D01*
X490433Y164581D01*
X490424Y164598D01*
X490420Y164618D01*
X490367Y164707D01*
X490318Y164798D01*
X490304Y164812D01*
X490294Y164829D01*
X490215Y164896D01*
X490140Y164967D01*
X490122Y164976D01*
X490107Y164989D01*
X490011Y165027D01*
X489917Y165071D01*
X489897Y165073D01*
X489879Y165081D01*
X489712Y165099D01*
X488949Y165099D01*
X488949Y165862D01*
X488946Y165882D01*
X488948Y165901D01*
X488926Y166003D01*
X488909Y166105D01*
X488900Y166122D01*
X488896Y166142D01*
X488843Y166231D01*
X488794Y166322D01*
X488780Y166336D01*
X488770Y166353D01*
X488691Y166420D01*
X488616Y166491D01*
X488598Y166500D01*
X488583Y166513D01*
X488487Y166552D01*
X488393Y166595D01*
X488373Y166597D01*
X488355Y166605D01*
X488188Y166623D01*
X477104Y166623D01*
X477305Y167896D01*
X477886Y169683D01*
X478739Y171357D01*
X479844Y172878D01*
X481172Y174206D01*
X482693Y175311D01*
X484367Y176164D01*
X486141Y176741D01*
X486231Y176787D01*
X486324Y176828D01*
X486340Y176843D01*
X486360Y176853D01*
X486430Y176926D01*
X486505Y176995D01*
X486516Y177014D01*
X486531Y177030D01*
X486575Y177121D01*
X486624Y177210D01*
X486628Y177232D01*
X486637Y177252D01*
X486649Y177352D01*
X486667Y177452D01*
X486664Y177474D01*
X486667Y177496D01*
X486646Y177595D01*
X486632Y177695D01*
X486622Y177715D01*
X486617Y177737D01*
X486566Y177824D01*
X486520Y177915D01*
X486504Y177930D01*
X486493Y177949D01*
X486417Y178016D01*
X486345Y178087D01*
X486320Y178100D01*
X486308Y178111D01*
X486278Y178124D01*
X486198Y178168D01*
X481899Y179948D01*
X478398Y183449D01*
X476503Y188024D01*
X476503Y192976D01*
X478398Y197551D01*
X481899Y201052D01*
X485388Y202497D01*
X485449Y202535D01*
X485514Y202564D01*
X485552Y202599D01*
X485597Y202626D01*
X485643Y202682D01*
X485695Y202730D01*
X485720Y202776D01*
X485754Y202816D01*
X485779Y202883D01*
X485814Y202946D01*
X485823Y202997D01*
X485842Y203045D01*
X485845Y203117D01*
X485858Y203188D01*
X485850Y203239D01*
X485852Y203291D01*
X485832Y203360D01*
X485822Y203431D01*
X485798Y203477D01*
X485784Y203527D01*
X485743Y203586D01*
X485710Y203650D01*
X485673Y203687D01*
X485643Y203729D01*
X485586Y203772D01*
X485535Y203822D01*
X485472Y203857D01*
X485446Y203876D01*
X485424Y203883D01*
X485388Y203903D01*
X481899Y205348D01*
X478398Y208849D01*
X476503Y213424D01*
X476503Y218376D01*
X478398Y222951D01*
X481899Y226452D01*
X485388Y227897D01*
X485449Y227935D01*
X485514Y227964D01*
X485552Y227999D01*
X485597Y228026D01*
X485643Y228082D01*
X485695Y228130D01*
X485720Y228176D01*
X485754Y228216D01*
X485779Y228283D01*
X485814Y228346D01*
X485823Y228397D01*
X485842Y228445D01*
X485845Y228517D01*
X485858Y228588D01*
X485850Y228639D01*
X485852Y228691D01*
X485832Y228760D01*
X485822Y228831D01*
X485798Y228877D01*
X485784Y228927D01*
X485743Y228986D01*
X485710Y229050D01*
X485673Y229087D01*
X485643Y229129D01*
X485586Y229172D01*
X485535Y229222D01*
X485472Y229257D01*
X485446Y229276D01*
X485424Y229283D01*
X485388Y229303D01*
X481899Y230748D01*
X478398Y234249D01*
X476503Y238824D01*
X476503Y243776D01*
X478398Y248351D01*
X481899Y251852D01*
X485388Y253297D01*
X485449Y253335D01*
X485514Y253364D01*
X485552Y253399D01*
X485597Y253426D01*
X485642Y253481D01*
X485695Y253530D01*
X485720Y253576D01*
X485754Y253616D01*
X485779Y253683D01*
X485814Y253746D01*
X485823Y253797D01*
X485842Y253845D01*
X485845Y253917D01*
X485858Y253988D01*
X485850Y254039D01*
X485852Y254091D01*
X485832Y254160D01*
X485822Y254231D01*
X485798Y254277D01*
X485784Y254327D01*
X485743Y254386D01*
X485710Y254450D01*
X485673Y254487D01*
X485643Y254529D01*
X485586Y254572D01*
X485535Y254622D01*
X485472Y254657D01*
X485446Y254676D01*
X485424Y254683D01*
X485388Y254703D01*
X481899Y256148D01*
X478398Y259649D01*
X476503Y264224D01*
X476503Y269176D01*
X478398Y273751D01*
X481899Y277252D01*
X485388Y278697D01*
X485449Y278735D01*
X485514Y278764D01*
X485552Y278799D01*
X485597Y278826D01*
X485643Y278882D01*
X485695Y278930D01*
X485720Y278976D01*
X485754Y279016D01*
X485779Y279083D01*
X485814Y279146D01*
X485823Y279197D01*
X485842Y279245D01*
X485845Y279317D01*
X485858Y279388D01*
X485850Y279439D01*
X485852Y279491D01*
X485832Y279560D01*
X485822Y279631D01*
X485798Y279677D01*
X485784Y279727D01*
X485743Y279786D01*
X485710Y279850D01*
X485673Y279887D01*
X485643Y279929D01*
X485586Y279972D01*
X485535Y280022D01*
X485472Y280057D01*
X485446Y280076D01*
X485424Y280083D01*
X485388Y280103D01*
X481899Y281548D01*
X478398Y285049D01*
X476503Y289624D01*
X476503Y294576D01*
X478398Y299151D01*
X481899Y302652D01*
X485388Y304097D01*
X485449Y304135D01*
X485514Y304164D01*
X485552Y304199D01*
X485597Y304226D01*
X485643Y304282D01*
X485695Y304330D01*
X485720Y304376D01*
X485754Y304416D01*
X485779Y304483D01*
X485814Y304546D01*
X485823Y304597D01*
X485842Y304645D01*
X485845Y304717D01*
X485858Y304788D01*
X485850Y304839D01*
X485852Y304891D01*
X485832Y304960D01*
X485822Y305031D01*
X485798Y305077D01*
X485784Y305127D01*
X485743Y305186D01*
X485710Y305250D01*
X485673Y305287D01*
X485643Y305329D01*
X485586Y305372D01*
X485535Y305422D01*
X485472Y305457D01*
X485446Y305476D01*
X485424Y305483D01*
X485388Y305503D01*
X481899Y306948D01*
X478398Y310449D01*
X476503Y315024D01*
X476503Y319976D01*
X478398Y324551D01*
X481899Y328052D01*
X485388Y329497D01*
X485449Y329535D01*
X485514Y329564D01*
X485552Y329599D01*
X485597Y329626D01*
X485643Y329682D01*
X485695Y329730D01*
X485720Y329776D01*
X485754Y329816D01*
X485779Y329883D01*
X485814Y329946D01*
X485823Y329997D01*
X485842Y330045D01*
X485845Y330117D01*
X485858Y330188D01*
X485850Y330239D01*
X485852Y330291D01*
X485832Y330360D01*
X485822Y330431D01*
X485798Y330477D01*
X485784Y330527D01*
X485743Y330586D01*
X485710Y330650D01*
X485673Y330687D01*
X485643Y330729D01*
X485586Y330772D01*
X485535Y330822D01*
X485472Y330857D01*
X485446Y330876D01*
X485424Y330883D01*
X485388Y330903D01*
X481899Y332348D01*
X478398Y335849D01*
X476503Y340424D01*
X476503Y345376D01*
X478398Y349951D01*
X481899Y353452D01*
X486474Y355347D01*
X491426Y355347D01*
X495899Y353494D01*
X495943Y353484D01*
X495985Y353464D01*
X496062Y353456D01*
X496138Y353438D01*
X496184Y353442D01*
X496229Y353437D01*
X496306Y353454D01*
X496383Y353461D01*
X496425Y353480D01*
X496470Y353489D01*
X496537Y353529D01*
X496608Y353561D01*
X496642Y353592D01*
X496681Y353616D01*
X496732Y353675D01*
X496789Y353727D01*
X496811Y353768D01*
X496841Y353802D01*
X496870Y353875D01*
X496907Y353943D01*
X496916Y353988D01*
X496933Y354031D01*
X496948Y354167D01*
X496951Y354185D01*
X496950Y354190D01*
X496951Y354197D01*
X496951Y496190D01*
X496948Y496210D01*
X496950Y496229D01*
X496928Y496331D01*
X496912Y496433D01*
X496902Y496450D01*
X496898Y496470D01*
X496845Y496559D01*
X496796Y496650D01*
X496782Y496664D01*
X496772Y496681D01*
X496693Y496748D01*
X496618Y496820D01*
X496600Y496828D01*
X496585Y496841D01*
X496489Y496880D01*
X496395Y496923D01*
X496375Y496925D01*
X496357Y496933D01*
X496190Y496951D01*
X3810Y496951D01*
X3790Y496948D01*
X3771Y496950D01*
X3669Y496928D01*
X3567Y496912D01*
X3550Y496902D01*
X3530Y496898D01*
X3441Y496845D01*
X3350Y496796D01*
X3336Y496782D01*
X3319Y496772D01*
X3252Y496693D01*
X3180Y496618D01*
X3172Y496600D01*
X3159Y496585D01*
X3120Y496489D01*
X3077Y496395D01*
X3075Y496375D01*
X3067Y496357D01*
X3049Y496190D01*
X3049Y352689D01*
X3060Y352618D01*
X3062Y352546D01*
X3080Y352497D01*
X3088Y352446D01*
X3122Y352383D01*
X3147Y352315D01*
X3179Y352275D01*
X3204Y352229D01*
X3256Y352179D01*
X3300Y352123D01*
X3344Y352095D01*
X3382Y352059D01*
X3447Y352029D01*
X3507Y351990D01*
X3558Y351978D01*
X3605Y351956D01*
X3676Y351948D01*
X3746Y351930D01*
X3798Y351934D01*
X3849Y351929D01*
X3920Y351944D01*
X3991Y351949D01*
X4039Y351970D01*
X4090Y351981D01*
X4151Y352018D01*
X4217Y352046D01*
X4273Y352091D01*
X4301Y352107D01*
X4316Y352125D01*
X4348Y352151D01*
X5649Y353452D01*
X10224Y355347D01*
X15176Y355347D01*
X19751Y353452D01*
X23252Y349951D01*
X25147Y345376D01*
X25147Y340424D01*
X23252Y335849D01*
X19751Y332348D01*
X16262Y330903D01*
X16201Y330865D01*
X16136Y330836D01*
X16098Y330801D01*
X16053Y330774D01*
X16007Y330718D01*
X15955Y330670D01*
X15930Y330624D01*
X15896Y330584D01*
X15871Y330517D01*
X15836Y330454D01*
X15827Y330403D01*
X15808Y330355D01*
X15805Y330283D01*
X15792Y330212D01*
X15800Y330161D01*
X15798Y330109D01*
X15818Y330040D01*
X15828Y329969D01*
X15852Y329923D01*
X15866Y329873D01*
X15907Y329814D01*
X15940Y329750D01*
X15977Y329713D01*
X16007Y329671D01*
X16064Y329628D01*
X16115Y329578D01*
X16178Y329543D01*
X16204Y329524D01*
X16226Y329517D01*
X16262Y329497D01*
X19751Y328052D01*
X23252Y324551D01*
X25147Y319976D01*
X25147Y315024D01*
X23252Y310449D01*
X19751Y306948D01*
X16262Y305503D01*
X16201Y305465D01*
X16136Y305436D01*
X16098Y305401D01*
X16053Y305374D01*
X16007Y305318D01*
X15955Y305270D01*
X15930Y305224D01*
X15896Y305184D01*
X15871Y305117D01*
X15836Y305054D01*
X15827Y305003D01*
X15808Y304955D01*
X15805Y304883D01*
X15792Y304812D01*
X15800Y304761D01*
X15798Y304709D01*
X15818Y304640D01*
X15828Y304569D01*
X15852Y304523D01*
X15866Y304473D01*
X15907Y304414D01*
X15940Y304350D01*
X15977Y304313D01*
X16007Y304271D01*
X16064Y304228D01*
X16115Y304178D01*
X16178Y304143D01*
X16204Y304124D01*
X16226Y304117D01*
X16262Y304097D01*
X19751Y302652D01*
X23252Y299151D01*
X25147Y294576D01*
X25147Y289624D01*
X23252Y285049D01*
X19751Y281548D01*
X16262Y280103D01*
X16201Y280065D01*
X16136Y280036D01*
X16098Y280001D01*
X16053Y279974D01*
X16007Y279918D01*
X15955Y279870D01*
X15930Y279824D01*
X15896Y279784D01*
X15871Y279717D01*
X15836Y279654D01*
X15827Y279603D01*
X15808Y279555D01*
X15805Y279483D01*
X15792Y279412D01*
X15800Y279361D01*
X15798Y279309D01*
X15818Y279240D01*
X15828Y279169D01*
X15852Y279123D01*
X15866Y279073D01*
X15907Y279014D01*
X15940Y278950D01*
X15977Y278913D01*
X16007Y278871D01*
X16064Y278828D01*
X16115Y278778D01*
X16178Y278743D01*
X16204Y278724D01*
X16226Y278717D01*
X16262Y278697D01*
X19751Y277252D01*
X23252Y273751D01*
X25147Y269176D01*
X25147Y264224D01*
X23252Y259649D01*
X19751Y256148D01*
X16262Y254703D01*
X16201Y254665D01*
X16136Y254636D01*
X16098Y254601D01*
X16053Y254574D01*
X16007Y254518D01*
X15955Y254470D01*
X15930Y254424D01*
X15896Y254384D01*
X15871Y254317D01*
X15836Y254254D01*
X15827Y254203D01*
X15808Y254155D01*
X15805Y254083D01*
X15792Y254012D01*
X15800Y253961D01*
X15798Y253909D01*
X15818Y253840D01*
X15828Y253769D01*
X15852Y253723D01*
X15866Y253673D01*
X15907Y253614D01*
X15940Y253550D01*
X15977Y253513D01*
X16007Y253471D01*
X16064Y253428D01*
X16115Y253378D01*
X16178Y253343D01*
X16204Y253324D01*
X16226Y253317D01*
X16262Y253297D01*
X19751Y251852D01*
X23252Y248351D01*
X25147Y243776D01*
X25147Y238824D01*
X23252Y234249D01*
X19751Y230748D01*
X16262Y229303D01*
X16201Y229265D01*
X16136Y229236D01*
X16098Y229201D01*
X16053Y229174D01*
X16007Y229118D01*
X15955Y229070D01*
X15930Y229024D01*
X15896Y228984D01*
X15871Y228917D01*
X15836Y228854D01*
X15827Y228803D01*
X15808Y228755D01*
X15805Y228683D01*
X15792Y228612D01*
X15800Y228561D01*
X15798Y228509D01*
X15818Y228440D01*
X15828Y228369D01*
X15852Y228323D01*
X15866Y228273D01*
X15907Y228214D01*
X15940Y228150D01*
X15977Y228113D01*
X16007Y228071D01*
X16064Y228028D01*
X16115Y227978D01*
X16178Y227943D01*
X16204Y227924D01*
X16226Y227917D01*
X16262Y227897D01*
X19751Y226452D01*
X23252Y222951D01*
X25147Y218376D01*
X25147Y213424D01*
X23252Y208849D01*
X19751Y205348D01*
X16262Y203903D01*
X16201Y203865D01*
X16136Y203836D01*
X16098Y203801D01*
X16053Y203774D01*
X16007Y203718D01*
X15955Y203670D01*
X15930Y203624D01*
X15896Y203584D01*
X15871Y203517D01*
X15836Y203454D01*
X15827Y203403D01*
X15808Y203355D01*
X15805Y203283D01*
X15792Y203212D01*
X15800Y203161D01*
X15798Y203109D01*
X15818Y203040D01*
X15828Y202969D01*
X15852Y202923D01*
X15866Y202873D01*
X15907Y202814D01*
X15940Y202750D01*
X15977Y202713D01*
X16007Y202671D01*
X16064Y202628D01*
X16115Y202578D01*
X16178Y202543D01*
X16204Y202524D01*
X16226Y202517D01*
X16262Y202497D01*
X19751Y201052D01*
X23252Y197551D01*
X25147Y192976D01*
X25147Y188024D01*
X23252Y183449D01*
X19751Y179948D01*
X15452Y178168D01*
X15366Y178114D01*
X15277Y178066D01*
X15262Y178050D01*
X15243Y178038D01*
X15179Y177960D01*
X15110Y177886D01*
X15101Y177866D01*
X15087Y177849D01*
X15050Y177754D01*
X15009Y177662D01*
X15006Y177640D01*
X14998Y177619D01*
X14994Y177518D01*
X14984Y177417D01*
X14989Y177396D01*
X14988Y177373D01*
X15016Y177276D01*
X15039Y177177D01*
X15050Y177158D01*
X15057Y177137D01*
X15114Y177054D01*
X15167Y176968D01*
X15184Y176953D01*
X15197Y176935D01*
X15278Y176875D01*
X15356Y176810D01*
X15381Y176798D01*
X15394Y176788D01*
X15425Y176778D01*
X15509Y176741D01*
X17283Y176164D01*
X18957Y175311D01*
X20478Y174206D01*
X21806Y172878D01*
X22911Y171357D01*
X23764Y169683D01*
X24345Y167896D01*
X24546Y166623D01*
X13462Y166623D01*
X13442Y166620D01*
X13423Y166622D01*
X13321Y166600D01*
X13219Y166583D01*
X13202Y166574D01*
X13182Y166570D01*
X13093Y166517D01*
X13002Y166468D01*
X12988Y166454D01*
X12971Y166444D01*
X12904Y166365D01*
X12833Y166290D01*
X12824Y166272D01*
X12811Y166257D01*
X12773Y166161D01*
X12729Y166067D01*
X12727Y166047D01*
X12719Y166029D01*
X12701Y165862D01*
X12701Y165099D01*
X11938Y165099D01*
X11918Y165096D01*
X11899Y165098D01*
X11797Y165076D01*
X11695Y165059D01*
X11678Y165050D01*
X11658Y165046D01*
X11569Y164993D01*
X11478Y164944D01*
X11464Y164930D01*
X11447Y164920D01*
X11380Y164841D01*
X11309Y164766D01*
X11300Y164748D01*
X11287Y164733D01*
X11248Y164637D01*
X11205Y164543D01*
X11203Y164523D01*
X11195Y164505D01*
X11177Y164338D01*
X11177Y153254D01*
X9904Y153455D01*
X8117Y154036D01*
X6443Y154889D01*
X4922Y155994D01*
X4348Y156568D01*
X4290Y156610D01*
X4238Y156659D01*
X4191Y156681D01*
X4149Y156711D01*
X4080Y156732D01*
X4015Y156763D01*
X3963Y156768D01*
X3913Y156784D01*
X3842Y156782D01*
X3771Y156790D01*
X3720Y156779D01*
X3668Y156777D01*
X3600Y156753D01*
X3530Y156738D01*
X3485Y156711D01*
X3437Y156693D01*
X3381Y156648D01*
X3319Y156611D01*
X3285Y156572D01*
X3245Y156539D01*
X3206Y156479D01*
X3159Y156424D01*
X3140Y156376D01*
X3112Y156332D01*
X3094Y156263D01*
X3067Y156196D01*
X3059Y156125D01*
X3051Y156094D01*
X3053Y156070D01*
X3049Y156030D01*
X3049Y130539D01*
X3060Y130468D01*
X3062Y130396D01*
X3080Y130347D01*
X3088Y130296D01*
X3122Y130233D01*
X3147Y130165D01*
X3179Y130125D01*
X3204Y130079D01*
X3256Y130029D01*
X3300Y129973D01*
X3344Y129945D01*
X3382Y129909D01*
X3447Y129879D01*
X3507Y129840D01*
X3558Y129828D01*
X3605Y129806D01*
X3676Y129798D01*
X3746Y129780D01*
X3798Y129784D01*
X3849Y129779D01*
X3920Y129794D01*
X3991Y129799D01*
X4039Y129820D01*
X4090Y129831D01*
X4151Y129868D01*
X4217Y129896D01*
X4273Y129941D01*
X4301Y129957D01*
X4316Y129975D01*
X4348Y130001D01*
X6269Y131922D01*
X10844Y133817D01*
X15796Y133817D01*
X17804Y132985D01*
X17917Y132958D01*
X18031Y132930D01*
X18037Y132930D01*
X18043Y132929D01*
X18160Y132940D01*
X18276Y132949D01*
X18282Y132951D01*
X18288Y132952D01*
X18396Y133000D01*
X18502Y133045D01*
X18508Y133050D01*
X18513Y133052D01*
X18527Y133065D01*
X18633Y133150D01*
X96804Y211321D01*
X96857Y211395D01*
X96917Y211465D01*
X96929Y211495D01*
X96948Y211521D01*
X96975Y211608D01*
X97009Y211693D01*
X97013Y211734D01*
X97020Y211756D01*
X97019Y211788D01*
X97027Y211859D01*
X97027Y382894D01*
X121306Y407173D01*
X194333Y407173D01*
X194448Y407192D01*
X194564Y407209D01*
X194570Y407211D01*
X194576Y407212D01*
X194679Y407267D01*
X194784Y407320D01*
X194788Y407325D01*
X194794Y407328D01*
X194873Y407412D01*
X194956Y407496D01*
X194959Y407502D01*
X194963Y407506D01*
X194971Y407523D01*
X195037Y407643D01*
X195213Y408068D01*
X197928Y410783D01*
X201476Y412253D01*
X218524Y412253D01*
X222072Y410783D01*
X224787Y408068D01*
X224963Y407643D01*
X225025Y407543D01*
X225085Y407443D01*
X225090Y407439D01*
X225093Y407434D01*
X225183Y407359D01*
X225272Y407283D01*
X225278Y407281D01*
X225282Y407277D01*
X225390Y407235D01*
X225500Y407191D01*
X225507Y407190D01*
X225512Y407189D01*
X225530Y407188D01*
X225667Y407173D01*
X235291Y407173D01*
X235381Y407187D01*
X235472Y407195D01*
X235501Y407207D01*
X235533Y407212D01*
X235614Y407255D01*
X235698Y407291D01*
X235730Y407317D01*
X235751Y407328D01*
X235773Y407351D01*
X235829Y407396D01*
X249204Y420771D01*
X249257Y420845D01*
X249317Y420915D01*
X249329Y420945D01*
X249348Y420971D01*
X249375Y421058D01*
X249409Y421143D01*
X249413Y421184D01*
X249420Y421206D01*
X249419Y421238D01*
X249427Y421309D01*
X249427Y465216D01*
X249413Y465306D01*
X249405Y465397D01*
X249393Y465426D01*
X249388Y465458D01*
X249345Y465539D01*
X249309Y465623D01*
X249283Y465655D01*
X249272Y465676D01*
X249249Y465698D01*
X249204Y465754D01*
X248640Y466318D01*
X247677Y468642D01*
X247677Y471158D01*
X248640Y473482D01*
X250418Y475260D01*
X252742Y476223D01*
X255258Y476223D01*
X257582Y475260D01*
X259360Y473482D01*
X260323Y471158D01*
X260323Y468642D01*
X259360Y466318D01*
X258796Y465754D01*
X258743Y465680D01*
X258683Y465611D01*
X258671Y465580D01*
X258652Y465554D01*
X258625Y465467D01*
X258591Y465382D01*
X258587Y465341D01*
X258580Y465319D01*
X258581Y465287D01*
X258573Y465216D01*
X258573Y417206D01*
X239394Y398027D01*
X225667Y398027D01*
X225552Y398008D01*
X225436Y397991D01*
X225430Y397989D01*
X225424Y397988D01*
X225321Y397933D01*
X225216Y397880D01*
X225212Y397875D01*
X225206Y397872D01*
X225127Y397788D01*
X225044Y397704D01*
X225041Y397698D01*
X225037Y397694D01*
X225029Y397677D01*
X224963Y397557D01*
X224787Y397132D01*
X222072Y394417D01*
X218524Y392947D01*
X201476Y392947D01*
X197928Y394417D01*
X195213Y397132D01*
X195037Y397557D01*
X194976Y397656D01*
X194915Y397757D01*
X194910Y397761D01*
X194907Y397766D01*
X194817Y397841D01*
X194728Y397917D01*
X194722Y397919D01*
X194718Y397923D01*
X194610Y397965D01*
X194500Y398009D01*
X194493Y398010D01*
X194488Y398011D01*
X194470Y398012D01*
X194333Y398027D01*
X125409Y398027D01*
X125319Y398013D01*
X125228Y398005D01*
X125199Y397993D01*
X125167Y397988D01*
X125086Y397945D01*
X125002Y397909D01*
X124970Y397883D01*
X124949Y397872D01*
X124927Y397849D01*
X124871Y397804D01*
X106396Y379329D01*
X106343Y379255D01*
X106283Y379185D01*
X106271Y379155D01*
X106252Y379129D01*
X106225Y379042D01*
X106191Y378957D01*
X106187Y378916D01*
X106180Y378894D01*
X106181Y378862D01*
X106173Y378791D01*
X106173Y207756D01*
X25100Y126683D01*
X25033Y126589D01*
X24962Y126495D01*
X24960Y126489D01*
X24957Y126484D01*
X24922Y126371D01*
X24886Y126261D01*
X24886Y126254D01*
X24884Y126248D01*
X24887Y126132D01*
X24888Y126015D01*
X24890Y126008D01*
X24891Y126003D01*
X24897Y125985D01*
X24935Y125854D01*
X25767Y123846D01*
X25767Y118894D01*
X23872Y114319D01*
X20371Y110818D01*
X16882Y109373D01*
X16821Y109335D01*
X16756Y109306D01*
X16718Y109271D01*
X16673Y109244D01*
X16627Y109188D01*
X16575Y109140D01*
X16550Y109094D01*
X16516Y109054D01*
X16491Y108987D01*
X16456Y108924D01*
X16447Y108873D01*
X16428Y108825D01*
X16425Y108753D01*
X16412Y108682D01*
X16420Y108631D01*
X16418Y108579D01*
X16438Y108510D01*
X16448Y108439D01*
X16472Y108393D01*
X16486Y108343D01*
X16527Y108284D01*
X16560Y108220D01*
X16597Y108183D01*
X16627Y108141D01*
X16684Y108098D01*
X16735Y108048D01*
X16798Y108013D01*
X16824Y107994D01*
X16846Y107987D01*
X16882Y107967D01*
X20371Y106522D01*
X23872Y103021D01*
X25767Y98446D01*
X25767Y93494D01*
X23872Y88919D01*
X20371Y85418D01*
X16072Y83638D01*
X15986Y83584D01*
X15897Y83536D01*
X15882Y83520D01*
X15863Y83508D01*
X15799Y83430D01*
X15730Y83356D01*
X15721Y83336D01*
X15707Y83319D01*
X15670Y83224D01*
X15629Y83132D01*
X15626Y83110D01*
X15618Y83089D01*
X15614Y82988D01*
X15604Y82887D01*
X15609Y82866D01*
X15608Y82843D01*
X15636Y82746D01*
X15659Y82647D01*
X15670Y82628D01*
X15677Y82607D01*
X15734Y82524D01*
X15787Y82438D01*
X15804Y82423D01*
X15817Y82405D01*
X15898Y82345D01*
X15976Y82280D01*
X16001Y82268D01*
X16014Y82258D01*
X16045Y82248D01*
X16129Y82211D01*
X17903Y81634D01*
X19577Y80781D01*
X21098Y79676D01*
X22426Y78348D01*
X23531Y76827D01*
X24384Y75153D01*
X24965Y73366D01*
X25166Y72093D01*
X14082Y72093D01*
X14062Y72090D01*
X14043Y72092D01*
X13941Y72070D01*
X13839Y72053D01*
X13822Y72044D01*
X13802Y72040D01*
X13713Y71987D01*
X13622Y71938D01*
X13608Y71924D01*
X13591Y71914D01*
X13524Y71835D01*
X13453Y71760D01*
X13444Y71742D01*
X13431Y71727D01*
X13393Y71631D01*
X13349Y71537D01*
X13347Y71517D01*
X13339Y71499D01*
X13321Y71332D01*
X13321Y69808D01*
X13324Y69788D01*
X13322Y69769D01*
X13344Y69667D01*
X13361Y69565D01*
X13370Y69548D01*
X13374Y69528D01*
X13427Y69439D01*
X13476Y69348D01*
X13490Y69334D01*
X13500Y69317D01*
X13579Y69250D01*
X13654Y69179D01*
X13672Y69170D01*
X13687Y69157D01*
X13783Y69118D01*
X13877Y69075D01*
X13897Y69073D01*
X13915Y69065D01*
X14082Y69047D01*
X25166Y69047D01*
X24965Y67774D01*
X24384Y65987D01*
X23531Y64313D01*
X22426Y62792D01*
X21098Y61464D01*
X19577Y60359D01*
X17903Y59506D01*
X16129Y58929D01*
X16039Y58883D01*
X15946Y58842D01*
X15930Y58827D01*
X15910Y58817D01*
X15839Y58744D01*
X15765Y58675D01*
X15754Y58656D01*
X15739Y58640D01*
X15695Y58549D01*
X15646Y58460D01*
X15642Y58438D01*
X15633Y58418D01*
X15621Y58318D01*
X15603Y58218D01*
X15606Y58196D01*
X15603Y58174D01*
X15624Y58075D01*
X15638Y57975D01*
X15648Y57955D01*
X15653Y57933D01*
X15704Y57846D01*
X15750Y57755D01*
X15766Y57740D01*
X15777Y57721D01*
X15853Y57654D01*
X15925Y57583D01*
X15950Y57570D01*
X15962Y57559D01*
X15992Y57546D01*
X16072Y57502D01*
X20371Y55722D01*
X23872Y52221D01*
X25767Y47646D01*
X25767Y42694D01*
X23872Y38119D01*
X20371Y34618D01*
X16882Y33173D01*
X16821Y33135D01*
X16756Y33106D01*
X16718Y33071D01*
X16673Y33044D01*
X16627Y32988D01*
X16575Y32940D01*
X16550Y32894D01*
X16516Y32854D01*
X16491Y32787D01*
X16456Y32724D01*
X16447Y32673D01*
X16428Y32625D01*
X16425Y32553D01*
X16412Y32482D01*
X16420Y32431D01*
X16418Y32379D01*
X16438Y32310D01*
X16448Y32239D01*
X16472Y32193D01*
X16486Y32143D01*
X16527Y32084D01*
X16560Y32020D01*
X16597Y31983D01*
X16627Y31941D01*
X16684Y31898D01*
X16735Y31848D01*
X16798Y31813D01*
X16824Y31794D01*
X16846Y31787D01*
X16882Y31767D01*
X20371Y30322D01*
X23872Y26821D01*
X25767Y22246D01*
X25767Y17294D01*
X23872Y12719D01*
X20371Y9218D01*
X15796Y7323D01*
X10844Y7323D01*
X6269Y9218D01*
X4348Y11139D01*
X4290Y11181D01*
X4238Y11231D01*
X4191Y11253D01*
X4149Y11283D01*
X4080Y11304D01*
X4015Y11334D01*
X3963Y11340D01*
X3913Y11355D01*
X3842Y11353D01*
X3771Y11361D01*
X3720Y11350D01*
X3668Y11349D01*
X3600Y11324D01*
X3530Y11309D01*
X3485Y11282D01*
X3437Y11264D01*
X3381Y11220D01*
X3319Y11183D01*
X3285Y11143D01*
X3245Y11111D01*
X3206Y11050D01*
X3159Y10996D01*
X3140Y10948D01*
X3112Y10904D01*
X3094Y10834D01*
X3067Y10768D01*
X3059Y10696D01*
X3051Y10665D01*
X3053Y10642D01*
X3049Y10601D01*
X3049Y3810D01*
X3052Y3790D01*
X3050Y3771D01*
X3072Y3669D01*
X3088Y3567D01*
X3098Y3550D01*
X3102Y3530D01*
X3155Y3441D01*
X3204Y3350D01*
X3218Y3336D01*
X3228Y3319D01*
X3307Y3252D01*
X3382Y3180D01*
X3400Y3172D01*
X3415Y3159D01*
X3511Y3120D01*
X3605Y3077D01*
X3625Y3075D01*
X3643Y3067D01*
X3810Y3049D01*
X496190Y3049D01*
X496210Y3052D01*
G37*
%LPC*%
G36*
X163842Y19077D02*
X163842Y19077D01*
X161518Y20040D01*
X159740Y21818D01*
X158777Y24142D01*
X158777Y26658D01*
X159740Y28982D01*
X160304Y29546D01*
X160357Y29620D01*
X160417Y29689D01*
X160429Y29720D01*
X160448Y29746D01*
X160475Y29833D01*
X160509Y29918D01*
X160513Y29959D01*
X160520Y29981D01*
X160519Y30013D01*
X160527Y30084D01*
X160527Y287416D01*
X160513Y287506D01*
X160505Y287597D01*
X160493Y287626D01*
X160488Y287658D01*
X160445Y287739D01*
X160409Y287823D01*
X160383Y287855D01*
X160372Y287876D01*
X160349Y287898D01*
X160304Y287954D01*
X159740Y288518D01*
X159453Y289210D01*
X159416Y289271D01*
X159386Y289337D01*
X159351Y289375D01*
X159324Y289419D01*
X159269Y289465D01*
X159220Y289518D01*
X159174Y289543D01*
X159134Y289576D01*
X159067Y289602D01*
X159004Y289636D01*
X158953Y289646D01*
X158905Y289664D01*
X158833Y289667D01*
X158762Y289680D01*
X158711Y289673D01*
X158659Y289675D01*
X158590Y289655D01*
X158519Y289644D01*
X158473Y289621D01*
X158423Y289606D01*
X158364Y289565D01*
X158300Y289533D01*
X158263Y289496D01*
X158221Y289466D01*
X158178Y289408D01*
X158128Y289357D01*
X158093Y289294D01*
X158074Y289269D01*
X158067Y289246D01*
X158047Y289210D01*
X157760Y288518D01*
X157196Y287954D01*
X157143Y287880D01*
X157083Y287811D01*
X157071Y287780D01*
X157052Y287754D01*
X157025Y287667D01*
X156991Y287582D01*
X156987Y287541D01*
X156980Y287519D01*
X156981Y287487D01*
X156973Y287416D01*
X156973Y55484D01*
X156987Y55394D01*
X156995Y55303D01*
X157007Y55274D01*
X157012Y55242D01*
X157055Y55161D01*
X157091Y55077D01*
X157117Y55045D01*
X157128Y55024D01*
X157151Y55002D01*
X157196Y54946D01*
X157760Y54382D01*
X158723Y52058D01*
X158723Y49542D01*
X157760Y47218D01*
X155982Y45440D01*
X153658Y44477D01*
X151142Y44477D01*
X148818Y45440D01*
X147040Y47218D01*
X146077Y49542D01*
X146077Y52058D01*
X147040Y54382D01*
X147604Y54946D01*
X147657Y55020D01*
X147717Y55089D01*
X147729Y55120D01*
X147748Y55146D01*
X147775Y55233D01*
X147809Y55318D01*
X147813Y55359D01*
X147820Y55381D01*
X147819Y55413D01*
X147827Y55484D01*
X147827Y287416D01*
X147813Y287506D01*
X147805Y287597D01*
X147793Y287626D01*
X147788Y287658D01*
X147745Y287739D01*
X147709Y287823D01*
X147683Y287855D01*
X147672Y287876D01*
X147649Y287898D01*
X147604Y287954D01*
X147040Y288518D01*
X146077Y290842D01*
X146077Y293358D01*
X147040Y295682D01*
X148818Y297460D01*
X151142Y298423D01*
X153658Y298423D01*
X155982Y297460D01*
X157760Y295682D01*
X158047Y294990D01*
X158084Y294929D01*
X158114Y294863D01*
X158149Y294825D01*
X158176Y294781D01*
X158232Y294735D01*
X158280Y294682D01*
X158326Y294657D01*
X158366Y294624D01*
X158433Y294598D01*
X158496Y294564D01*
X158547Y294554D01*
X158595Y294536D01*
X158667Y294533D01*
X158738Y294520D01*
X158789Y294527D01*
X158841Y294525D01*
X158910Y294545D01*
X158981Y294556D01*
X159027Y294579D01*
X159077Y294594D01*
X159136Y294635D01*
X159200Y294667D01*
X159237Y294704D01*
X159279Y294734D01*
X159322Y294792D01*
X159372Y294843D01*
X159407Y294906D01*
X159426Y294931D01*
X159433Y294954D01*
X159453Y294990D01*
X159740Y295682D01*
X161518Y297460D01*
X163842Y298423D01*
X166358Y298423D01*
X168365Y297591D01*
X168409Y297581D01*
X168451Y297562D01*
X168528Y297553D01*
X168604Y297535D01*
X168650Y297540D01*
X168695Y297534D01*
X168772Y297551D01*
X168849Y297558D01*
X168891Y297577D01*
X168936Y297587D01*
X169003Y297627D01*
X169074Y297658D01*
X169108Y297689D01*
X169147Y297713D01*
X169198Y297772D01*
X169255Y297825D01*
X169277Y297865D01*
X169307Y297900D01*
X169336Y297972D01*
X169373Y298040D01*
X169382Y298085D01*
X169399Y298128D01*
X169414Y298264D01*
X169417Y298282D01*
X169416Y298287D01*
X169417Y298295D01*
X169417Y350916D01*
X169403Y351006D01*
X169395Y351097D01*
X169383Y351127D01*
X169378Y351158D01*
X169335Y351239D01*
X169299Y351323D01*
X169273Y351355D01*
X169262Y351376D01*
X169239Y351398D01*
X169216Y351427D01*
X169214Y351431D01*
X169211Y351433D01*
X169194Y351454D01*
X168630Y352018D01*
X167667Y354342D01*
X167667Y356858D01*
X168630Y359182D01*
X170408Y360960D01*
X172732Y361923D01*
X175248Y361923D01*
X177572Y360960D01*
X179350Y359182D01*
X180313Y356858D01*
X180313Y354342D01*
X179350Y352018D01*
X178786Y351454D01*
X178740Y351390D01*
X178719Y351368D01*
X178714Y351359D01*
X178673Y351311D01*
X178661Y351281D01*
X178642Y351254D01*
X178615Y351167D01*
X178581Y351082D01*
X178577Y351042D01*
X178570Y351019D01*
X178571Y350987D01*
X178563Y350916D01*
X178563Y110619D01*
X178577Y110529D01*
X178585Y110438D01*
X178597Y110409D01*
X178602Y110377D01*
X178645Y110296D01*
X178681Y110212D01*
X178707Y110180D01*
X178718Y110159D01*
X178741Y110137D01*
X178786Y110081D01*
X192444Y96423D01*
X192502Y96381D01*
X192554Y96332D01*
X192601Y96310D01*
X192643Y96280D01*
X192712Y96258D01*
X192777Y96228D01*
X192829Y96222D01*
X192879Y96207D01*
X192950Y96209D01*
X193021Y96201D01*
X193072Y96212D01*
X193124Y96214D01*
X193192Y96238D01*
X193262Y96253D01*
X193307Y96280D01*
X193355Y96298D01*
X193411Y96343D01*
X193473Y96380D01*
X193507Y96419D01*
X193547Y96452D01*
X193586Y96512D01*
X193633Y96566D01*
X193652Y96615D01*
X193680Y96659D01*
X193698Y96728D01*
X193725Y96795D01*
X193733Y96866D01*
X193741Y96897D01*
X193739Y96920D01*
X193743Y96961D01*
X193743Y99720D01*
X195213Y103268D01*
X197928Y105983D01*
X201476Y107453D01*
X218524Y107453D01*
X222072Y105983D01*
X224787Y103268D01*
X226257Y99720D01*
X226257Y95880D01*
X224787Y92332D01*
X222072Y89617D01*
X218524Y88147D01*
X202557Y88147D01*
X202487Y88136D01*
X202415Y88134D01*
X202366Y88116D01*
X202315Y88108D01*
X202251Y88074D01*
X202184Y88049D01*
X202143Y88017D01*
X202097Y87992D01*
X202048Y87941D01*
X201992Y87896D01*
X201964Y87852D01*
X201928Y87814D01*
X201898Y87749D01*
X201859Y87689D01*
X201846Y87638D01*
X201824Y87591D01*
X201816Y87520D01*
X201799Y87450D01*
X201803Y87398D01*
X201797Y87347D01*
X201812Y87276D01*
X201818Y87205D01*
X201838Y87157D01*
X201849Y87106D01*
X201886Y87045D01*
X201914Y86979D01*
X201959Y86923D01*
X201976Y86895D01*
X201993Y86880D01*
X202019Y86848D01*
X206591Y82276D01*
X206665Y82223D01*
X206735Y82163D01*
X206765Y82151D01*
X206791Y82132D01*
X206878Y82105D01*
X206963Y82071D01*
X207004Y82067D01*
X207026Y82060D01*
X207058Y82061D01*
X207129Y82053D01*
X218524Y82053D01*
X222072Y80583D01*
X224787Y77868D01*
X226257Y74320D01*
X226257Y70480D01*
X224787Y66932D01*
X222072Y64217D01*
X218524Y62747D01*
X201476Y62747D01*
X197928Y64217D01*
X195213Y66932D01*
X193743Y70480D01*
X193743Y74320D01*
X195213Y77868D01*
X196101Y78756D01*
X196112Y78772D01*
X196128Y78784D01*
X196184Y78872D01*
X196244Y78956D01*
X196250Y78975D01*
X196261Y78991D01*
X196286Y79092D01*
X196317Y79191D01*
X196316Y79211D01*
X196321Y79230D01*
X196313Y79333D01*
X196310Y79437D01*
X196303Y79455D01*
X196302Y79475D01*
X196262Y79570D01*
X196226Y79668D01*
X196213Y79683D01*
X196206Y79701D01*
X196101Y79832D01*
X170972Y104961D01*
X170914Y105003D01*
X170862Y105052D01*
X170815Y105074D01*
X170773Y105104D01*
X170704Y105126D01*
X170639Y105156D01*
X170587Y105162D01*
X170537Y105177D01*
X170466Y105175D01*
X170395Y105183D01*
X170344Y105172D01*
X170292Y105170D01*
X170224Y105146D01*
X170154Y105131D01*
X170110Y105104D01*
X170061Y105086D01*
X170005Y105041D01*
X169943Y105004D01*
X169909Y104965D01*
X169869Y104932D01*
X169830Y104872D01*
X169783Y104818D01*
X169764Y104769D01*
X169736Y104725D01*
X169718Y104656D01*
X169691Y104589D01*
X169683Y104518D01*
X169675Y104487D01*
X169677Y104464D01*
X169673Y104423D01*
X169673Y30084D01*
X169687Y29994D01*
X169695Y29903D01*
X169707Y29874D01*
X169712Y29842D01*
X169755Y29761D01*
X169791Y29677D01*
X169817Y29645D01*
X169828Y29624D01*
X169851Y29602D01*
X169896Y29546D01*
X170460Y28982D01*
X171423Y26658D01*
X171423Y24142D01*
X170460Y21818D01*
X168682Y20040D01*
X166358Y19077D01*
X163842Y19077D01*
G37*
%LPD*%
%LPC*%
G36*
X455942Y184177D02*
X455942Y184177D01*
X453618Y185140D01*
X451840Y186918D01*
X450877Y189242D01*
X450877Y191758D01*
X451840Y194082D01*
X452404Y194646D01*
X452457Y194720D01*
X452517Y194789D01*
X452529Y194820D01*
X452548Y194846D01*
X452575Y194933D01*
X452609Y195018D01*
X452613Y195059D01*
X452620Y195081D01*
X452619Y195113D01*
X452627Y195184D01*
X452627Y393844D01*
X466817Y408034D01*
X466885Y408128D01*
X466955Y408223D01*
X466957Y408229D01*
X466961Y408234D01*
X466995Y408345D01*
X467031Y408457D01*
X467031Y408463D01*
X467033Y408469D01*
X467030Y408586D01*
X467029Y408703D01*
X467027Y408710D01*
X467027Y408715D01*
X467021Y408732D01*
X466982Y408864D01*
X466821Y409253D01*
X466821Y413067D01*
X468281Y416592D01*
X470978Y419289D01*
X473798Y420457D01*
X473859Y420495D01*
X473924Y420524D01*
X473962Y420559D01*
X474007Y420586D01*
X474052Y420642D01*
X474105Y420690D01*
X474130Y420736D01*
X474164Y420776D01*
X474189Y420843D01*
X474224Y420906D01*
X474233Y420957D01*
X474252Y421005D01*
X474255Y421077D01*
X474268Y421148D01*
X474260Y421199D01*
X474262Y421251D01*
X474242Y421320D01*
X474232Y421391D01*
X474208Y421437D01*
X474194Y421487D01*
X474153Y421546D01*
X474120Y421610D01*
X474083Y421647D01*
X474053Y421689D01*
X473996Y421732D01*
X473945Y421782D01*
X473882Y421817D01*
X473856Y421836D01*
X473834Y421843D01*
X473798Y421863D01*
X470978Y423031D01*
X468281Y425728D01*
X466821Y429253D01*
X466821Y433067D01*
X468281Y436592D01*
X470978Y439289D01*
X472491Y439915D01*
X472552Y439953D01*
X472618Y439982D01*
X472656Y440018D01*
X472700Y440045D01*
X472746Y440100D01*
X472799Y440149D01*
X472824Y440194D01*
X472857Y440235D01*
X472883Y440301D01*
X472917Y440364D01*
X472927Y440416D01*
X472945Y440464D01*
X472948Y440536D01*
X472961Y440606D01*
X472953Y440658D01*
X472956Y440710D01*
X472936Y440779D01*
X472925Y440850D01*
X472902Y440896D01*
X472887Y440946D01*
X472846Y441005D01*
X472814Y441069D01*
X472776Y441105D01*
X472747Y441148D01*
X472689Y441191D01*
X472638Y441241D01*
X472575Y441276D01*
X472549Y441295D01*
X472527Y441302D01*
X472491Y441322D01*
X470412Y442183D01*
X467433Y445162D01*
X465821Y449054D01*
X465821Y453266D01*
X467433Y457158D01*
X470412Y460137D01*
X474304Y461749D01*
X478516Y461749D01*
X482408Y460137D01*
X485387Y457158D01*
X486999Y453266D01*
X486999Y449054D01*
X485387Y445162D01*
X482408Y442183D01*
X480329Y441322D01*
X480268Y441284D01*
X480202Y441255D01*
X480164Y441220D01*
X480120Y441192D01*
X480074Y441137D01*
X480021Y441089D01*
X479996Y441043D01*
X479963Y441003D01*
X479937Y440936D01*
X479903Y440873D01*
X479893Y440822D01*
X479875Y440773D01*
X479872Y440702D01*
X479859Y440631D01*
X479867Y440580D01*
X479864Y440528D01*
X479884Y440459D01*
X479895Y440388D01*
X479918Y440341D01*
X479933Y440291D01*
X479974Y440233D01*
X480006Y440169D01*
X480044Y440132D01*
X480073Y440089D01*
X480131Y440047D01*
X480182Y439996D01*
X480245Y439962D01*
X480271Y439943D01*
X480293Y439935D01*
X480329Y439915D01*
X481842Y439289D01*
X484539Y436592D01*
X485999Y433067D01*
X485999Y429253D01*
X484539Y425728D01*
X481842Y423031D01*
X479022Y421863D01*
X478961Y421825D01*
X478896Y421796D01*
X478858Y421761D01*
X478813Y421734D01*
X478768Y421678D01*
X478715Y421630D01*
X478690Y421584D01*
X478656Y421544D01*
X478631Y421477D01*
X478596Y421414D01*
X478587Y421363D01*
X478568Y421315D01*
X478565Y421243D01*
X478552Y421172D01*
X478560Y421121D01*
X478558Y421069D01*
X478578Y421000D01*
X478588Y420929D01*
X478612Y420883D01*
X478626Y420833D01*
X478667Y420774D01*
X478700Y420710D01*
X478737Y420673D01*
X478767Y420631D01*
X478824Y420588D01*
X478875Y420538D01*
X478938Y420503D01*
X478964Y420484D01*
X478986Y420477D01*
X479022Y420457D01*
X481842Y419289D01*
X484539Y416592D01*
X485999Y413067D01*
X485999Y409253D01*
X484539Y405728D01*
X481842Y403031D01*
X479022Y401863D01*
X478961Y401825D01*
X478896Y401796D01*
X478858Y401761D01*
X478813Y401734D01*
X478768Y401678D01*
X478715Y401630D01*
X478690Y401584D01*
X478656Y401544D01*
X478631Y401477D01*
X478596Y401414D01*
X478587Y401363D01*
X478568Y401315D01*
X478565Y401243D01*
X478552Y401172D01*
X478560Y401121D01*
X478558Y401069D01*
X478578Y401000D01*
X478588Y400929D01*
X478612Y400883D01*
X478626Y400833D01*
X478667Y400774D01*
X478700Y400710D01*
X478737Y400673D01*
X478767Y400631D01*
X478824Y400588D01*
X478875Y400538D01*
X478938Y400503D01*
X478964Y400484D01*
X478986Y400477D01*
X479022Y400457D01*
X481842Y399289D01*
X484539Y396592D01*
X485999Y393067D01*
X485999Y389253D01*
X484539Y385728D01*
X481842Y383031D01*
X480329Y382405D01*
X480268Y382367D01*
X480202Y382338D01*
X480164Y382302D01*
X480120Y382275D01*
X480074Y382220D01*
X480021Y382171D01*
X479996Y382126D01*
X479963Y382085D01*
X479937Y382019D01*
X479903Y381956D01*
X479893Y381904D01*
X479875Y381856D01*
X479872Y381784D01*
X479859Y381714D01*
X479867Y381662D01*
X479864Y381610D01*
X479884Y381541D01*
X479895Y381470D01*
X479918Y381424D01*
X479933Y381374D01*
X479974Y381315D01*
X480006Y381251D01*
X480044Y381215D01*
X480073Y381172D01*
X480131Y381129D01*
X480182Y381079D01*
X480245Y381044D01*
X480271Y381025D01*
X480293Y381018D01*
X480329Y380998D01*
X482408Y380137D01*
X485387Y377158D01*
X486999Y373266D01*
X486999Y369054D01*
X485387Y365162D01*
X482408Y362183D01*
X478516Y360571D01*
X474304Y360571D01*
X470412Y362183D01*
X467433Y365162D01*
X465821Y369054D01*
X465821Y373266D01*
X467433Y377158D01*
X470412Y380137D01*
X472491Y380998D01*
X472552Y381036D01*
X472618Y381065D01*
X472656Y381100D01*
X472700Y381128D01*
X472746Y381183D01*
X472799Y381231D01*
X472824Y381277D01*
X472857Y381317D01*
X472883Y381384D01*
X472917Y381447D01*
X472927Y381498D01*
X472945Y381547D01*
X472948Y381618D01*
X472961Y381689D01*
X472953Y381740D01*
X472956Y381792D01*
X472936Y381861D01*
X472925Y381932D01*
X472902Y381979D01*
X472887Y382029D01*
X472846Y382087D01*
X472814Y382151D01*
X472776Y382188D01*
X472747Y382231D01*
X472689Y382273D01*
X472638Y382324D01*
X472575Y382358D01*
X472549Y382377D01*
X472527Y382385D01*
X472491Y382405D01*
X470978Y383031D01*
X468281Y385728D01*
X466821Y389253D01*
X466821Y393110D01*
X466848Y393197D01*
X466847Y393223D01*
X466853Y393249D01*
X466844Y393345D01*
X466842Y393443D01*
X466833Y393467D01*
X466830Y393493D01*
X466791Y393583D01*
X466757Y393674D01*
X466741Y393694D01*
X466730Y393718D01*
X466664Y393790D01*
X466604Y393866D01*
X466582Y393880D01*
X466564Y393899D01*
X466479Y393946D01*
X466397Y393999D01*
X466371Y394005D01*
X466348Y394018D01*
X466252Y394035D01*
X466158Y394059D01*
X466132Y394057D01*
X466106Y394062D01*
X466010Y394047D01*
X465913Y394040D01*
X465889Y394030D01*
X465863Y394026D01*
X465776Y393982D01*
X465687Y393944D01*
X465661Y393923D01*
X465644Y393914D01*
X465621Y393891D01*
X465556Y393839D01*
X461996Y390279D01*
X461950Y390216D01*
X461928Y390192D01*
X461923Y390182D01*
X461883Y390135D01*
X461871Y390105D01*
X461852Y390079D01*
X461825Y389992D01*
X461791Y389907D01*
X461787Y389866D01*
X461780Y389844D01*
X461781Y389812D01*
X461773Y389741D01*
X461773Y195184D01*
X461787Y195094D01*
X461795Y195003D01*
X461807Y194974D01*
X461812Y194942D01*
X461855Y194861D01*
X461891Y194777D01*
X461917Y194745D01*
X461928Y194724D01*
X461951Y194702D01*
X461996Y194646D01*
X462560Y194082D01*
X463523Y191758D01*
X463523Y189242D01*
X462560Y186918D01*
X460782Y185140D01*
X458458Y184177D01*
X455942Y184177D01*
G37*
%LPD*%
%LPC*%
G36*
X447052Y71147D02*
X447052Y71147D01*
X444728Y72110D01*
X442950Y73888D01*
X441987Y76212D01*
X441987Y78728D01*
X442950Y81052D01*
X443514Y81616D01*
X443567Y81690D01*
X443627Y81759D01*
X443639Y81790D01*
X443658Y81816D01*
X443685Y81903D01*
X443719Y81988D01*
X443723Y82029D01*
X443730Y82051D01*
X443729Y82083D01*
X443737Y82154D01*
X443737Y171781D01*
X443723Y171871D01*
X443715Y171962D01*
X443703Y171991D01*
X443698Y172023D01*
X443655Y172104D01*
X443619Y172188D01*
X443593Y172220D01*
X443582Y172241D01*
X443559Y172263D01*
X443514Y172319D01*
X425957Y189876D01*
X425957Y269636D01*
X425943Y269726D01*
X425935Y269817D01*
X425923Y269846D01*
X425918Y269878D01*
X425875Y269959D01*
X425839Y270043D01*
X425813Y270075D01*
X425802Y270096D01*
X425779Y270118D01*
X425734Y270174D01*
X425170Y270738D01*
X424207Y273062D01*
X424207Y275578D01*
X425170Y277902D01*
X425734Y278466D01*
X425787Y278540D01*
X425847Y278609D01*
X425859Y278640D01*
X425878Y278666D01*
X425905Y278753D01*
X425939Y278838D01*
X425943Y278879D01*
X425950Y278901D01*
X425949Y278933D01*
X425957Y279004D01*
X425957Y397906D01*
X425943Y397996D01*
X425935Y398087D01*
X425923Y398116D01*
X425918Y398148D01*
X425875Y398229D01*
X425839Y398313D01*
X425813Y398345D01*
X425802Y398366D01*
X425779Y398388D01*
X425734Y398444D01*
X425170Y399008D01*
X424207Y401332D01*
X424207Y403848D01*
X425170Y406172D01*
X426948Y407950D01*
X429272Y408913D01*
X431788Y408913D01*
X434112Y407950D01*
X435890Y406172D01*
X436853Y403848D01*
X436853Y401332D01*
X435890Y399008D01*
X435326Y398444D01*
X435273Y398370D01*
X435213Y398301D01*
X435201Y398270D01*
X435182Y398244D01*
X435155Y398157D01*
X435121Y398072D01*
X435117Y398031D01*
X435110Y398009D01*
X435111Y397977D01*
X435103Y397906D01*
X435103Y279004D01*
X435117Y278914D01*
X435125Y278823D01*
X435137Y278794D01*
X435142Y278762D01*
X435185Y278681D01*
X435221Y278597D01*
X435247Y278565D01*
X435258Y278544D01*
X435281Y278522D01*
X435326Y278466D01*
X435890Y277902D01*
X436853Y275578D01*
X436853Y273062D01*
X435890Y270738D01*
X435326Y270174D01*
X435273Y270100D01*
X435213Y270031D01*
X435201Y270000D01*
X435182Y269974D01*
X435155Y269887D01*
X435121Y269802D01*
X435117Y269761D01*
X435110Y269739D01*
X435111Y269707D01*
X435103Y269636D01*
X435103Y193979D01*
X435117Y193889D01*
X435125Y193798D01*
X435137Y193769D01*
X435142Y193737D01*
X435185Y193656D01*
X435221Y193572D01*
X435247Y193540D01*
X435258Y193519D01*
X435281Y193497D01*
X435326Y193441D01*
X452883Y175884D01*
X452883Y82154D01*
X452897Y82064D01*
X452905Y81973D01*
X452917Y81944D01*
X452922Y81912D01*
X452965Y81831D01*
X453001Y81747D01*
X453027Y81715D01*
X453038Y81694D01*
X453061Y81672D01*
X453106Y81616D01*
X453670Y81052D01*
X454633Y78728D01*
X454633Y76212D01*
X453670Y73888D01*
X451892Y72110D01*
X449568Y71147D01*
X447052Y71147D01*
G37*
%LPD*%
%LPC*%
G36*
X63512Y231167D02*
X63512Y231167D01*
X61188Y232130D01*
X59410Y233908D01*
X58447Y236232D01*
X58447Y238748D01*
X59410Y241072D01*
X59974Y241636D01*
X60027Y241710D01*
X60087Y241779D01*
X60099Y241810D01*
X60118Y241836D01*
X60145Y241923D01*
X60179Y242008D01*
X60183Y242049D01*
X60190Y242071D01*
X60189Y242103D01*
X60197Y242174D01*
X60197Y369966D01*
X60190Y370008D01*
X60191Y370011D01*
X60187Y370026D01*
X60183Y370056D01*
X60175Y370147D01*
X60163Y370176D01*
X60158Y370208D01*
X60141Y370240D01*
X60138Y370251D01*
X60113Y370294D01*
X60079Y370373D01*
X60053Y370405D01*
X60042Y370426D01*
X60023Y370444D01*
X60012Y370462D01*
X59998Y370474D01*
X59974Y370504D01*
X59410Y371068D01*
X58542Y373165D01*
X58531Y373182D01*
X58525Y373201D01*
X58467Y373286D01*
X58412Y373374D01*
X58397Y373387D01*
X58385Y373403D01*
X58303Y373464D01*
X58222Y373531D01*
X58204Y373538D01*
X58188Y373550D01*
X58089Y373582D01*
X57993Y373619D01*
X57973Y373620D01*
X57954Y373626D01*
X57850Y373625D01*
X57747Y373629D01*
X57728Y373624D01*
X57708Y373624D01*
X57547Y373577D01*
X57138Y373407D01*
X54622Y373407D01*
X52298Y374370D01*
X50520Y376148D01*
X49557Y378472D01*
X49557Y380988D01*
X50520Y383312D01*
X52298Y385090D01*
X54622Y386053D01*
X57138Y386053D01*
X59462Y385090D01*
X61240Y383312D01*
X62108Y381215D01*
X62119Y381198D01*
X62125Y381179D01*
X62184Y381094D01*
X62238Y381006D01*
X62253Y380993D01*
X62265Y380977D01*
X62348Y380915D01*
X62428Y380849D01*
X62446Y380842D01*
X62462Y380830D01*
X62561Y380798D01*
X62657Y380761D01*
X62677Y380760D01*
X62696Y380754D01*
X62800Y380755D01*
X62903Y380751D01*
X62922Y380756D01*
X62942Y380756D01*
X63103Y380803D01*
X63512Y380973D01*
X66028Y380973D01*
X68352Y380010D01*
X70130Y378232D01*
X71093Y375908D01*
X71093Y374114D01*
X71096Y374094D01*
X71094Y374075D01*
X71116Y373973D01*
X71132Y373871D01*
X71142Y373854D01*
X71146Y373834D01*
X71199Y373745D01*
X71248Y373654D01*
X71262Y373640D01*
X71272Y373623D01*
X71351Y373556D01*
X71426Y373484D01*
X71444Y373476D01*
X71459Y373463D01*
X71555Y373424D01*
X71649Y373381D01*
X71669Y373379D01*
X71687Y373371D01*
X71854Y373353D01*
X73648Y373353D01*
X75972Y372390D01*
X77750Y370612D01*
X78713Y368288D01*
X78713Y365772D01*
X77750Y363448D01*
X77186Y362884D01*
X77142Y362823D01*
X77107Y362787D01*
X77101Y362774D01*
X77073Y362741D01*
X77061Y362710D01*
X77042Y362684D01*
X77015Y362597D01*
X76981Y362512D01*
X76977Y362471D01*
X76970Y362449D01*
X76971Y362417D01*
X76963Y362346D01*
X76963Y266304D01*
X76977Y266214D01*
X76985Y266123D01*
X76997Y266094D01*
X77002Y266062D01*
X77045Y265981D01*
X77081Y265897D01*
X77107Y265865D01*
X77118Y265844D01*
X77141Y265822D01*
X77186Y265766D01*
X77750Y265202D01*
X78713Y262878D01*
X78713Y260362D01*
X77750Y258038D01*
X75972Y256260D01*
X73648Y255297D01*
X71132Y255297D01*
X70395Y255603D01*
X70351Y255613D01*
X70309Y255632D01*
X70232Y255641D01*
X70156Y255659D01*
X70110Y255654D01*
X70065Y255659D01*
X69988Y255643D01*
X69911Y255636D01*
X69869Y255617D01*
X69824Y255607D01*
X69757Y255567D01*
X69686Y255536D01*
X69652Y255505D01*
X69613Y255481D01*
X69562Y255422D01*
X69505Y255369D01*
X69483Y255329D01*
X69453Y255294D01*
X69424Y255222D01*
X69387Y255154D01*
X69378Y255109D01*
X69361Y255066D01*
X69346Y254930D01*
X69343Y254912D01*
X69344Y254907D01*
X69343Y254899D01*
X69343Y242174D01*
X69357Y242084D01*
X69365Y241993D01*
X69377Y241964D01*
X69382Y241932D01*
X69425Y241851D01*
X69461Y241767D01*
X69487Y241735D01*
X69498Y241714D01*
X69521Y241692D01*
X69566Y241636D01*
X70130Y241072D01*
X71093Y238748D01*
X71093Y236232D01*
X70130Y233908D01*
X68352Y232130D01*
X66028Y231167D01*
X63512Y231167D01*
G37*
%LPD*%
%LPC*%
G36*
X87642Y222277D02*
X87642Y222277D01*
X85318Y223240D01*
X83540Y225018D01*
X82577Y227342D01*
X82577Y229858D01*
X83540Y232182D01*
X84104Y232746D01*
X84157Y232820D01*
X84217Y232889D01*
X84229Y232920D01*
X84248Y232946D01*
X84275Y233033D01*
X84309Y233118D01*
X84313Y233159D01*
X84320Y233181D01*
X84319Y233213D01*
X84327Y233284D01*
X84327Y414416D01*
X84313Y414506D01*
X84305Y414597D01*
X84293Y414626D01*
X84288Y414658D01*
X84245Y414739D01*
X84209Y414823D01*
X84183Y414855D01*
X84172Y414876D01*
X84149Y414898D01*
X84104Y414954D01*
X83540Y415518D01*
X82577Y417842D01*
X82577Y420358D01*
X83540Y422682D01*
X85318Y424460D01*
X87642Y425423D01*
X90158Y425423D01*
X92482Y424460D01*
X94260Y422682D01*
X95223Y420358D01*
X95223Y417842D01*
X94260Y415518D01*
X93696Y414954D01*
X93643Y414880D01*
X93583Y414811D01*
X93571Y414780D01*
X93552Y414754D01*
X93525Y414667D01*
X93491Y414582D01*
X93487Y414541D01*
X93480Y414519D01*
X93481Y414487D01*
X93473Y414416D01*
X93473Y233284D01*
X93487Y233194D01*
X93495Y233103D01*
X93507Y233074D01*
X93512Y233042D01*
X93555Y232961D01*
X93591Y232877D01*
X93617Y232845D01*
X93628Y232824D01*
X93651Y232802D01*
X93696Y232746D01*
X94260Y232182D01*
X95223Y229858D01*
X95223Y227342D01*
X94260Y225018D01*
X92482Y223240D01*
X90158Y222277D01*
X87642Y222277D01*
G37*
%LPD*%
%LPC*%
G36*
X277676Y113547D02*
X277676Y113547D01*
X274128Y115017D01*
X271413Y117732D01*
X269943Y121280D01*
X269943Y125120D01*
X271413Y128668D01*
X274128Y131383D01*
X277676Y132853D01*
X294724Y132853D01*
X298272Y131383D01*
X300987Y128668D01*
X302457Y125120D01*
X302457Y121280D01*
X300987Y117732D01*
X298272Y115017D01*
X294724Y113547D01*
X277676Y113547D01*
G37*
%LPD*%
%LPC*%
G36*
X201476Y113547D02*
X201476Y113547D01*
X197928Y115017D01*
X195213Y117732D01*
X193743Y121280D01*
X193743Y125120D01*
X195213Y128668D01*
X197928Y131383D01*
X201476Y132853D01*
X218524Y132853D01*
X222072Y131383D01*
X224787Y128668D01*
X226257Y125120D01*
X226257Y121280D01*
X224787Y117732D01*
X222072Y115017D01*
X218524Y113547D01*
X201476Y113547D01*
G37*
%LPD*%
%LPC*%
G36*
X201476Y138947D02*
X201476Y138947D01*
X197928Y140417D01*
X195213Y143132D01*
X193743Y146680D01*
X193743Y150520D01*
X195213Y154068D01*
X197928Y156783D01*
X201476Y158253D01*
X218524Y158253D01*
X222072Y156783D01*
X224787Y154068D01*
X226257Y150520D01*
X226257Y146680D01*
X224787Y143132D01*
X222072Y140417D01*
X218524Y138947D01*
X201476Y138947D01*
G37*
%LPD*%
%LPC*%
G36*
X277676Y138947D02*
X277676Y138947D01*
X274128Y140417D01*
X271413Y143132D01*
X269943Y146680D01*
X269943Y150520D01*
X271413Y154068D01*
X274128Y156783D01*
X277676Y158253D01*
X294724Y158253D01*
X298272Y156783D01*
X300987Y154068D01*
X302457Y150520D01*
X302457Y146680D01*
X300987Y143132D01*
X298272Y140417D01*
X294724Y138947D01*
X277676Y138947D01*
G37*
%LPD*%
%LPC*%
G36*
X201476Y240547D02*
X201476Y240547D01*
X197928Y242017D01*
X195213Y244732D01*
X193743Y248280D01*
X193743Y252120D01*
X195213Y255668D01*
X197928Y258383D01*
X201476Y259853D01*
X218524Y259853D01*
X222072Y258383D01*
X224787Y255668D01*
X226257Y252120D01*
X226257Y248280D01*
X224787Y244732D01*
X222072Y242017D01*
X218524Y240547D01*
X201476Y240547D01*
G37*
%LPD*%
%LPC*%
G36*
X201476Y164347D02*
X201476Y164347D01*
X197928Y165817D01*
X195213Y168532D01*
X193743Y172080D01*
X193743Y175920D01*
X195213Y179468D01*
X197928Y182183D01*
X201476Y183653D01*
X218524Y183653D01*
X222072Y182183D01*
X224787Y179468D01*
X226257Y175920D01*
X226257Y172080D01*
X224787Y168532D01*
X222072Y165817D01*
X218524Y164347D01*
X201476Y164347D01*
G37*
%LPD*%
%LPC*%
G36*
X201476Y189747D02*
X201476Y189747D01*
X197928Y191217D01*
X195213Y193932D01*
X193743Y197480D01*
X193743Y201320D01*
X195213Y204868D01*
X197928Y207583D01*
X201476Y209053D01*
X218524Y209053D01*
X222072Y207583D01*
X224787Y204868D01*
X226257Y201320D01*
X226257Y197480D01*
X224787Y193932D01*
X222072Y191217D01*
X218524Y189747D01*
X201476Y189747D01*
G37*
%LPD*%
%LPC*%
G36*
X277676Y189747D02*
X277676Y189747D01*
X274128Y191217D01*
X271413Y193932D01*
X269943Y197480D01*
X269943Y201320D01*
X271413Y204868D01*
X274128Y207583D01*
X277676Y209053D01*
X294724Y209053D01*
X298272Y207583D01*
X300987Y204868D01*
X302457Y201320D01*
X302457Y197480D01*
X300987Y193932D01*
X298272Y191217D01*
X294724Y189747D01*
X277676Y189747D01*
G37*
%LPD*%
%LPC*%
G36*
X277676Y88147D02*
X277676Y88147D01*
X274128Y89617D01*
X271413Y92332D01*
X269943Y95880D01*
X269943Y99720D01*
X271413Y103268D01*
X274128Y105983D01*
X277676Y107453D01*
X294724Y107453D01*
X298272Y105983D01*
X300987Y103268D01*
X302457Y99720D01*
X302457Y95880D01*
X300987Y92332D01*
X298272Y89617D01*
X294724Y88147D01*
X277676Y88147D01*
G37*
%LPD*%
%LPC*%
G36*
X277676Y215147D02*
X277676Y215147D01*
X274128Y216617D01*
X271413Y219332D01*
X269943Y222880D01*
X269943Y226720D01*
X271413Y230268D01*
X274128Y232983D01*
X277676Y234453D01*
X294724Y234453D01*
X298272Y232983D01*
X300987Y230268D01*
X302457Y226720D01*
X302457Y222880D01*
X300987Y219332D01*
X298272Y216617D01*
X294724Y215147D01*
X277676Y215147D01*
G37*
%LPD*%
%LPC*%
G36*
X277676Y62747D02*
X277676Y62747D01*
X274128Y64217D01*
X271413Y66932D01*
X269943Y70480D01*
X269943Y74320D01*
X271413Y77868D01*
X274128Y80583D01*
X277676Y82053D01*
X294724Y82053D01*
X298272Y80583D01*
X300987Y77868D01*
X302457Y74320D01*
X302457Y70480D01*
X300987Y66932D01*
X298272Y64217D01*
X294724Y62747D01*
X277676Y62747D01*
G37*
%LPD*%
%LPC*%
G36*
X277676Y240547D02*
X277676Y240547D01*
X274128Y242017D01*
X271413Y244732D01*
X269943Y248280D01*
X269943Y252120D01*
X271413Y255668D01*
X274128Y258383D01*
X277676Y259853D01*
X294724Y259853D01*
X298272Y258383D01*
X300987Y255668D01*
X302457Y252120D01*
X302457Y248280D01*
X300987Y244732D01*
X298272Y242017D01*
X294724Y240547D01*
X277676Y240547D01*
G37*
%LPD*%
%LPC*%
G36*
X201476Y265947D02*
X201476Y265947D01*
X197928Y267417D01*
X195213Y270132D01*
X193743Y273680D01*
X193743Y277520D01*
X195213Y281068D01*
X197928Y283783D01*
X201476Y285253D01*
X218524Y285253D01*
X222072Y283783D01*
X224787Y281068D01*
X226257Y277520D01*
X226257Y273680D01*
X224787Y270132D01*
X222072Y267417D01*
X218524Y265947D01*
X201476Y265947D01*
G37*
%LPD*%
%LPC*%
G36*
X277676Y265947D02*
X277676Y265947D01*
X274128Y267417D01*
X271413Y270132D01*
X269943Y273680D01*
X269943Y277520D01*
X271413Y281068D01*
X274128Y283783D01*
X277676Y285253D01*
X294724Y285253D01*
X298272Y283783D01*
X300987Y281068D01*
X302457Y277520D01*
X302457Y273680D01*
X300987Y270132D01*
X298272Y267417D01*
X294724Y265947D01*
X277676Y265947D01*
G37*
%LPD*%
%LPC*%
G36*
X277676Y291347D02*
X277676Y291347D01*
X274128Y292817D01*
X271413Y295532D01*
X269943Y299080D01*
X269943Y302920D01*
X271413Y306468D01*
X274128Y309183D01*
X277676Y310653D01*
X294724Y310653D01*
X298272Y309183D01*
X300987Y306468D01*
X302457Y302920D01*
X302457Y299080D01*
X300987Y295532D01*
X298272Y292817D01*
X294724Y291347D01*
X277676Y291347D01*
G37*
%LPD*%
%LPC*%
G36*
X201476Y316747D02*
X201476Y316747D01*
X197928Y318217D01*
X195213Y320932D01*
X193743Y324480D01*
X193743Y328320D01*
X195213Y331868D01*
X197928Y334583D01*
X201476Y336053D01*
X218524Y336053D01*
X222072Y334583D01*
X224787Y331868D01*
X226257Y328320D01*
X226257Y324480D01*
X224787Y320932D01*
X222072Y318217D01*
X218524Y316747D01*
X201476Y316747D01*
G37*
%LPD*%
%LPC*%
G36*
X277676Y316747D02*
X277676Y316747D01*
X274128Y318217D01*
X271413Y320932D01*
X269943Y324480D01*
X269943Y328320D01*
X271413Y331868D01*
X274128Y334583D01*
X277676Y336053D01*
X294724Y336053D01*
X298272Y334583D01*
X300987Y331868D01*
X302457Y328320D01*
X302457Y324480D01*
X300987Y320932D01*
X298272Y318217D01*
X294724Y316747D01*
X277676Y316747D01*
G37*
%LPD*%
%LPC*%
G36*
X201476Y342147D02*
X201476Y342147D01*
X197928Y343617D01*
X195213Y346332D01*
X193743Y349880D01*
X193743Y353720D01*
X195213Y357268D01*
X197928Y359983D01*
X201476Y361453D01*
X218524Y361453D01*
X222072Y359983D01*
X224787Y357268D01*
X226257Y353720D01*
X226257Y349880D01*
X224787Y346332D01*
X222072Y343617D01*
X218524Y342147D01*
X201476Y342147D01*
G37*
%LPD*%
%LPC*%
G36*
X277676Y342147D02*
X277676Y342147D01*
X274128Y343617D01*
X271413Y346332D01*
X269943Y349880D01*
X269943Y353720D01*
X271413Y357268D01*
X274128Y359983D01*
X277676Y361453D01*
X294724Y361453D01*
X298272Y359983D01*
X300987Y357268D01*
X302457Y353720D01*
X302457Y349880D01*
X300987Y346332D01*
X298272Y343617D01*
X294724Y342147D01*
X277676Y342147D01*
G37*
%LPD*%
%LPC*%
G36*
X201476Y291347D02*
X201476Y291347D01*
X197928Y292817D01*
X195213Y295532D01*
X193743Y299080D01*
X193743Y302920D01*
X195213Y306468D01*
X197928Y309183D01*
X201476Y310653D01*
X218524Y310653D01*
X222072Y309183D01*
X224787Y306468D01*
X226257Y302920D01*
X226257Y299080D01*
X224787Y295532D01*
X222072Y292817D01*
X218524Y291347D01*
X201476Y291347D01*
G37*
%LPD*%
%LPC*%
G36*
X277676Y392947D02*
X277676Y392947D01*
X274128Y394417D01*
X271413Y397132D01*
X269943Y400680D01*
X269943Y404520D01*
X271413Y408068D01*
X274128Y410783D01*
X277676Y412253D01*
X294724Y412253D01*
X298272Y410783D01*
X300987Y408068D01*
X302457Y404520D01*
X302457Y400680D01*
X300987Y397132D01*
X298272Y394417D01*
X294724Y392947D01*
X277676Y392947D01*
G37*
%LPD*%
%LPC*%
G36*
X201476Y367547D02*
X201476Y367547D01*
X197928Y369017D01*
X195213Y371732D01*
X193743Y375280D01*
X193743Y379120D01*
X195213Y382668D01*
X197928Y385383D01*
X201476Y386853D01*
X218524Y386853D01*
X222072Y385383D01*
X224787Y382668D01*
X226257Y379120D01*
X226257Y375280D01*
X224787Y371732D01*
X222072Y369017D01*
X218524Y367547D01*
X201476Y367547D01*
G37*
%LPD*%
%LPC*%
G36*
X323862Y21617D02*
X323862Y21617D01*
X321538Y22580D01*
X319760Y24358D01*
X318797Y26682D01*
X318797Y29198D01*
X319760Y31522D01*
X320324Y32086D01*
X320377Y32160D01*
X320437Y32229D01*
X320449Y32260D01*
X320468Y32286D01*
X320495Y32373D01*
X320529Y32458D01*
X320533Y32499D01*
X320540Y32521D01*
X320539Y32553D01*
X320547Y32624D01*
X320547Y53736D01*
X320533Y53826D01*
X320525Y53917D01*
X320513Y53946D01*
X320508Y53978D01*
X320465Y54059D01*
X320429Y54143D01*
X320403Y54175D01*
X320392Y54196D01*
X320369Y54218D01*
X320324Y54274D01*
X319760Y54838D01*
X318797Y57162D01*
X318797Y59678D01*
X319760Y62002D01*
X321538Y63780D01*
X323862Y64743D01*
X326378Y64743D01*
X328702Y63780D01*
X330480Y62002D01*
X331443Y59678D01*
X331443Y57162D01*
X330480Y54838D01*
X329916Y54274D01*
X329863Y54200D01*
X329803Y54131D01*
X329791Y54100D01*
X329772Y54074D01*
X329745Y53987D01*
X329711Y53902D01*
X329707Y53861D01*
X329700Y53839D01*
X329701Y53807D01*
X329693Y53736D01*
X329693Y32624D01*
X329707Y32534D01*
X329715Y32443D01*
X329727Y32414D01*
X329732Y32382D01*
X329775Y32301D01*
X329811Y32217D01*
X329837Y32185D01*
X329848Y32164D01*
X329871Y32142D01*
X329916Y32086D01*
X330480Y31522D01*
X331443Y29198D01*
X331443Y26682D01*
X330480Y24358D01*
X328702Y22580D01*
X326378Y21617D01*
X323862Y21617D01*
G37*
%LPD*%
%LPC*%
G36*
X41398Y429541D02*
X41398Y429541D01*
X38624Y430691D01*
X36501Y432814D01*
X35351Y435588D01*
X35351Y438592D01*
X36501Y441366D01*
X38624Y443489D01*
X41398Y444639D01*
X44402Y444639D01*
X47176Y443489D01*
X49299Y441366D01*
X50449Y438592D01*
X50449Y435588D01*
X49299Y432814D01*
X47176Y430691D01*
X44402Y429541D01*
X41398Y429541D01*
G37*
%LPD*%
%LPC*%
G36*
X85398Y429541D02*
X85398Y429541D01*
X82624Y430691D01*
X80501Y432814D01*
X79351Y435588D01*
X79351Y438592D01*
X80501Y441366D01*
X82624Y443489D01*
X85398Y444639D01*
X88402Y444639D01*
X91176Y443489D01*
X93299Y441366D01*
X94449Y438592D01*
X94449Y435588D01*
X93299Y432814D01*
X91176Y430691D01*
X88402Y429541D01*
X85398Y429541D01*
G37*
%LPD*%
%LPC*%
G36*
X211523Y226323D02*
X211523Y226323D01*
X211523Y233945D01*
X217505Y233945D01*
X219271Y233593D01*
X220936Y232904D01*
X222434Y231903D01*
X223707Y230630D01*
X224708Y229132D01*
X225397Y227467D01*
X225625Y226323D01*
X211523Y226323D01*
G37*
%LPD*%
%LPC*%
G36*
X287723Y175523D02*
X287723Y175523D01*
X287723Y183145D01*
X293705Y183145D01*
X295471Y182793D01*
X297136Y182104D01*
X298634Y181103D01*
X299907Y179830D01*
X300908Y178332D01*
X301597Y176667D01*
X301825Y175523D01*
X287723Y175523D01*
G37*
%LPD*%
%LPC*%
G36*
X287723Y378723D02*
X287723Y378723D01*
X287723Y386345D01*
X293705Y386345D01*
X295471Y385993D01*
X297136Y385304D01*
X298634Y384303D01*
X299907Y383030D01*
X300908Y381532D01*
X301597Y379867D01*
X301825Y378723D01*
X287723Y378723D01*
G37*
%LPD*%
%LPC*%
G36*
X194375Y226323D02*
X194375Y226323D01*
X194603Y227467D01*
X195292Y229132D01*
X196293Y230630D01*
X197566Y231903D01*
X199064Y232904D01*
X200729Y233593D01*
X202495Y233945D01*
X208477Y233945D01*
X208477Y226323D01*
X194375Y226323D01*
G37*
%LPD*%
%LPC*%
G36*
X270575Y175523D02*
X270575Y175523D01*
X270803Y176667D01*
X271492Y178332D01*
X272493Y179830D01*
X273766Y181103D01*
X275264Y182104D01*
X276929Y182793D01*
X278695Y183145D01*
X284677Y183145D01*
X284677Y175523D01*
X270575Y175523D01*
G37*
%LPD*%
%LPC*%
G36*
X270575Y378723D02*
X270575Y378723D01*
X270803Y379867D01*
X271492Y381532D01*
X272493Y383030D01*
X273766Y384303D01*
X275264Y385304D01*
X276929Y385993D01*
X278695Y386345D01*
X284677Y386345D01*
X284677Y378723D01*
X270575Y378723D01*
G37*
%LPD*%
%LPC*%
G36*
X287723Y164855D02*
X287723Y164855D01*
X287723Y172477D01*
X301825Y172477D01*
X301597Y171333D01*
X300908Y169668D01*
X299907Y168170D01*
X298634Y166897D01*
X297136Y165896D01*
X295471Y165207D01*
X293705Y164855D01*
X287723Y164855D01*
G37*
%LPD*%
%LPC*%
G36*
X287723Y368055D02*
X287723Y368055D01*
X287723Y375677D01*
X301825Y375677D01*
X301597Y374533D01*
X300908Y372868D01*
X299907Y371370D01*
X298634Y370097D01*
X297136Y369096D01*
X295471Y368407D01*
X293705Y368055D01*
X287723Y368055D01*
G37*
%LPD*%
%LPC*%
G36*
X211523Y215655D02*
X211523Y215655D01*
X211523Y223277D01*
X225625Y223277D01*
X225397Y222133D01*
X224708Y220468D01*
X223707Y218970D01*
X222434Y217697D01*
X220936Y216696D01*
X219271Y216007D01*
X217505Y215655D01*
X211523Y215655D01*
G37*
%LPD*%
%LPC*%
G36*
X202495Y215655D02*
X202495Y215655D01*
X200729Y216007D01*
X199064Y216696D01*
X197566Y217697D01*
X196293Y218970D01*
X195292Y220468D01*
X194603Y222133D01*
X194375Y223277D01*
X208477Y223277D01*
X208477Y215655D01*
X202495Y215655D01*
G37*
%LPD*%
%LPC*%
G36*
X278695Y164855D02*
X278695Y164855D01*
X276929Y165207D01*
X275264Y165896D01*
X273766Y166897D01*
X272493Y168170D01*
X271492Y169668D01*
X270803Y171333D01*
X270575Y172477D01*
X284677Y172477D01*
X284677Y164855D01*
X278695Y164855D01*
G37*
%LPD*%
%LPC*%
G36*
X278695Y368055D02*
X278695Y368055D01*
X276929Y368407D01*
X275264Y369096D01*
X273766Y370097D01*
X272493Y371370D01*
X271492Y372868D01*
X270803Y374533D01*
X270575Y375677D01*
X284677Y375677D01*
X284677Y368055D01*
X278695Y368055D01*
G37*
%LPD*%
%LPC*%
G36*
X14223Y163577D02*
X14223Y163577D01*
X24546Y163577D01*
X24345Y162304D01*
X23764Y160517D01*
X22911Y158843D01*
X21806Y157322D01*
X20478Y155994D01*
X18957Y154889D01*
X17283Y154036D01*
X15496Y153455D01*
X14223Y153254D01*
X14223Y163577D01*
G37*
%LPD*%
%LPC*%
G36*
X486154Y153455D02*
X486154Y153455D01*
X484367Y154036D01*
X482693Y154889D01*
X481172Y155994D01*
X479844Y157322D01*
X478739Y158843D01*
X477886Y160517D01*
X477305Y162304D01*
X477104Y163577D01*
X487427Y163577D01*
X487427Y153254D01*
X486154Y153455D01*
G37*
%LPD*%
%LPC*%
G36*
X286199Y173999D02*
X286199Y173999D01*
X286199Y174001D01*
X286201Y174001D01*
X286201Y173999D01*
X286199Y173999D01*
G37*
%LPD*%
%LPC*%
G36*
X209999Y224799D02*
X209999Y224799D01*
X209999Y224801D01*
X210001Y224801D01*
X210001Y224799D01*
X209999Y224799D01*
G37*
%LPD*%
%LPC*%
G36*
X286199Y377199D02*
X286199Y377199D01*
X286199Y377201D01*
X286201Y377201D01*
X286201Y377199D01*
X286199Y377199D01*
G37*
%LPD*%
D10*
X0Y0D02*
X500000Y0D01*
X500000Y500000D01*
X0Y500000D01*
X0Y0D01*
D11*
X12700Y342900D03*
X12700Y317500D03*
X12700Y292100D03*
X12700Y266700D03*
X12700Y241300D03*
X12700Y215900D03*
X12700Y190500D03*
X12700Y165100D03*
X488950Y165100D03*
X488950Y190500D03*
X488950Y215900D03*
X488950Y241300D03*
X488950Y266700D03*
X488950Y292100D03*
X488950Y317500D03*
X488950Y342900D03*
D10*
X82400Y437090D02*
X82402Y437224D01*
X82408Y437358D01*
X82418Y437491D01*
X82432Y437625D01*
X82450Y437758D01*
X82472Y437890D01*
X82497Y438021D01*
X82527Y438152D01*
X82561Y438282D01*
X82598Y438410D01*
X82639Y438538D01*
X82684Y438664D01*
X82733Y438789D01*
X82785Y438912D01*
X82841Y439034D01*
X82901Y439154D01*
X82964Y439272D01*
X83031Y439388D01*
X83101Y439502D01*
X83175Y439614D01*
X83252Y439724D01*
X83332Y439832D01*
X83415Y439937D01*
X83501Y440039D01*
X83590Y440139D01*
X83683Y440236D01*
X83778Y440331D01*
X83876Y440422D01*
X83976Y440511D01*
X84079Y440596D01*
X84185Y440679D01*
X84293Y440758D01*
X84403Y440834D01*
X84516Y440907D01*
X84631Y440976D01*
X84747Y441042D01*
X84866Y441104D01*
X84986Y441163D01*
X85109Y441218D01*
X85232Y441270D01*
X85357Y441317D01*
X85484Y441361D01*
X85612Y441402D01*
X85741Y441438D01*
X85871Y441471D01*
X86002Y441499D01*
X86133Y441524D01*
X86266Y441545D01*
X86399Y441562D01*
X86532Y441575D01*
X86666Y441584D01*
X86800Y441589D01*
X86934Y441590D01*
X87067Y441587D01*
X87201Y441580D01*
X87335Y441569D01*
X87468Y441554D01*
X87601Y441535D01*
X87733Y441512D01*
X87864Y441486D01*
X87994Y441455D01*
X88124Y441420D01*
X88252Y441382D01*
X88379Y441340D01*
X88505Y441294D01*
X88630Y441244D01*
X88753Y441191D01*
X88874Y441134D01*
X88994Y441073D01*
X89111Y441009D01*
X89227Y440942D01*
X89341Y440871D01*
X89452Y440796D01*
X89561Y440719D01*
X89668Y440638D01*
X89773Y440554D01*
X89874Y440467D01*
X89974Y440377D01*
X90070Y440284D01*
X90164Y440188D01*
X90255Y440089D01*
X90342Y439988D01*
X90427Y439884D01*
X90509Y439778D01*
X90587Y439670D01*
X90662Y439559D01*
X90734Y439446D01*
X90803Y439330D01*
X90868Y439213D01*
X90929Y439094D01*
X90987Y438973D01*
X91041Y438851D01*
X91092Y438727D01*
X91139Y438601D01*
X91182Y438474D01*
X91221Y438346D01*
X91257Y438217D01*
X91288Y438087D01*
X91316Y437956D01*
X91340Y437824D01*
X91360Y437691D01*
X91376Y437558D01*
X91388Y437425D01*
X91396Y437291D01*
X91400Y437157D01*
X91400Y437023D01*
X91396Y436889D01*
X91388Y436755D01*
X91376Y436622D01*
X91360Y436489D01*
X91340Y436356D01*
X91316Y436224D01*
X91288Y436093D01*
X91257Y435963D01*
X91221Y435834D01*
X91182Y435706D01*
X91139Y435579D01*
X91092Y435453D01*
X91041Y435329D01*
X90987Y435207D01*
X90929Y435086D01*
X90868Y434967D01*
X90803Y434850D01*
X90734Y434734D01*
X90662Y434621D01*
X90587Y434510D01*
X90509Y434402D01*
X90427Y434296D01*
X90342Y434192D01*
X90255Y434091D01*
X90164Y433992D01*
X90070Y433896D01*
X89974Y433803D01*
X89874Y433713D01*
X89773Y433626D01*
X89668Y433542D01*
X89561Y433461D01*
X89452Y433384D01*
X89341Y433309D01*
X89227Y433238D01*
X89111Y433171D01*
X88994Y433107D01*
X88874Y433046D01*
X88753Y432989D01*
X88630Y432936D01*
X88505Y432886D01*
X88379Y432840D01*
X88252Y432798D01*
X88124Y432760D01*
X87994Y432725D01*
X87864Y432694D01*
X87733Y432668D01*
X87601Y432645D01*
X87468Y432626D01*
X87335Y432611D01*
X87201Y432600D01*
X87067Y432593D01*
X86934Y432590D01*
X86800Y432591D01*
X86666Y432596D01*
X86532Y432605D01*
X86399Y432618D01*
X86266Y432635D01*
X86133Y432656D01*
X86002Y432681D01*
X85871Y432709D01*
X85741Y432742D01*
X85612Y432778D01*
X85484Y432819D01*
X85357Y432863D01*
X85232Y432910D01*
X85109Y432962D01*
X84986Y433017D01*
X84866Y433076D01*
X84747Y433138D01*
X84631Y433204D01*
X84516Y433273D01*
X84403Y433346D01*
X84293Y433422D01*
X84185Y433501D01*
X84079Y433584D01*
X83976Y433669D01*
X83876Y433758D01*
X83778Y433849D01*
X83683Y433944D01*
X83590Y434041D01*
X83501Y434141D01*
X83415Y434243D01*
X83332Y434348D01*
X83252Y434456D01*
X83175Y434566D01*
X83101Y434678D01*
X83031Y434792D01*
X82964Y434908D01*
X82901Y435026D01*
X82841Y435146D01*
X82785Y435268D01*
X82733Y435391D01*
X82684Y435516D01*
X82639Y435642D01*
X82598Y435770D01*
X82561Y435898D01*
X82527Y436028D01*
X82497Y436159D01*
X82472Y436290D01*
X82450Y436422D01*
X82432Y436555D01*
X82418Y436689D01*
X82408Y436822D01*
X82402Y436956D01*
X82400Y437090D01*
X38400Y437090D02*
X38402Y437224D01*
X38408Y437358D01*
X38418Y437491D01*
X38432Y437625D01*
X38450Y437758D01*
X38472Y437890D01*
X38497Y438021D01*
X38527Y438152D01*
X38561Y438282D01*
X38598Y438410D01*
X38639Y438538D01*
X38684Y438664D01*
X38733Y438789D01*
X38785Y438912D01*
X38841Y439034D01*
X38901Y439154D01*
X38964Y439272D01*
X39031Y439388D01*
X39101Y439502D01*
X39175Y439614D01*
X39252Y439724D01*
X39332Y439832D01*
X39415Y439937D01*
X39501Y440039D01*
X39590Y440139D01*
X39683Y440236D01*
X39778Y440331D01*
X39876Y440422D01*
X39976Y440511D01*
X40079Y440596D01*
X40185Y440679D01*
X40293Y440758D01*
X40403Y440834D01*
X40516Y440907D01*
X40631Y440976D01*
X40747Y441042D01*
X40866Y441104D01*
X40986Y441163D01*
X41109Y441218D01*
X41232Y441270D01*
X41357Y441317D01*
X41484Y441361D01*
X41612Y441402D01*
X41741Y441438D01*
X41871Y441471D01*
X42002Y441499D01*
X42133Y441524D01*
X42266Y441545D01*
X42399Y441562D01*
X42532Y441575D01*
X42666Y441584D01*
X42800Y441589D01*
X42934Y441590D01*
X43067Y441587D01*
X43201Y441580D01*
X43335Y441569D01*
X43468Y441554D01*
X43601Y441535D01*
X43733Y441512D01*
X43864Y441486D01*
X43994Y441455D01*
X44124Y441420D01*
X44252Y441382D01*
X44379Y441340D01*
X44505Y441294D01*
X44630Y441244D01*
X44753Y441191D01*
X44874Y441134D01*
X44994Y441073D01*
X45111Y441009D01*
X45227Y440942D01*
X45341Y440871D01*
X45452Y440796D01*
X45561Y440719D01*
X45668Y440638D01*
X45773Y440554D01*
X45874Y440467D01*
X45974Y440377D01*
X46070Y440284D01*
X46164Y440188D01*
X46255Y440089D01*
X46342Y439988D01*
X46427Y439884D01*
X46509Y439778D01*
X46587Y439670D01*
X46662Y439559D01*
X46734Y439446D01*
X46803Y439330D01*
X46868Y439213D01*
X46929Y439094D01*
X46987Y438973D01*
X47041Y438851D01*
X47092Y438727D01*
X47139Y438601D01*
X47182Y438474D01*
X47221Y438346D01*
X47257Y438217D01*
X47288Y438087D01*
X47316Y437956D01*
X47340Y437824D01*
X47360Y437691D01*
X47376Y437558D01*
X47388Y437425D01*
X47396Y437291D01*
X47400Y437157D01*
X47400Y437023D01*
X47396Y436889D01*
X47388Y436755D01*
X47376Y436622D01*
X47360Y436489D01*
X47340Y436356D01*
X47316Y436224D01*
X47288Y436093D01*
X47257Y435963D01*
X47221Y435834D01*
X47182Y435706D01*
X47139Y435579D01*
X47092Y435453D01*
X47041Y435329D01*
X46987Y435207D01*
X46929Y435086D01*
X46868Y434967D01*
X46803Y434850D01*
X46734Y434734D01*
X46662Y434621D01*
X46587Y434510D01*
X46509Y434402D01*
X46427Y434296D01*
X46342Y434192D01*
X46255Y434091D01*
X46164Y433992D01*
X46070Y433896D01*
X45974Y433803D01*
X45874Y433713D01*
X45773Y433626D01*
X45668Y433542D01*
X45561Y433461D01*
X45452Y433384D01*
X45341Y433309D01*
X45227Y433238D01*
X45111Y433171D01*
X44994Y433107D01*
X44874Y433046D01*
X44753Y432989D01*
X44630Y432936D01*
X44505Y432886D01*
X44379Y432840D01*
X44252Y432798D01*
X44124Y432760D01*
X43994Y432725D01*
X43864Y432694D01*
X43733Y432668D01*
X43601Y432645D01*
X43468Y432626D01*
X43335Y432611D01*
X43201Y432600D01*
X43067Y432593D01*
X42934Y432590D01*
X42800Y432591D01*
X42666Y432596D01*
X42532Y432605D01*
X42399Y432618D01*
X42266Y432635D01*
X42133Y432656D01*
X42002Y432681D01*
X41871Y432709D01*
X41741Y432742D01*
X41612Y432778D01*
X41484Y432819D01*
X41357Y432863D01*
X41232Y432910D01*
X41109Y432962D01*
X40986Y433017D01*
X40866Y433076D01*
X40747Y433138D01*
X40631Y433204D01*
X40516Y433273D01*
X40403Y433346D01*
X40293Y433422D01*
X40185Y433501D01*
X40079Y433584D01*
X39976Y433669D01*
X39876Y433758D01*
X39778Y433849D01*
X39683Y433944D01*
X39590Y434041D01*
X39501Y434141D01*
X39415Y434243D01*
X39332Y434348D01*
X39252Y434456D01*
X39175Y434566D01*
X39101Y434678D01*
X39031Y434792D01*
X38964Y434908D01*
X38901Y435026D01*
X38841Y435146D01*
X38785Y435268D01*
X38733Y435391D01*
X38684Y435516D01*
X38639Y435642D01*
X38598Y435770D01*
X38561Y435898D01*
X38527Y436028D01*
X38497Y436159D01*
X38472Y436290D01*
X38450Y436422D01*
X38432Y436555D01*
X38418Y436689D01*
X38408Y436822D01*
X38402Y436956D01*
X38400Y437090D01*
D12*
X203396Y402600D02*
X216604Y402600D01*
X216604Y377200D02*
X203396Y377200D01*
X203396Y351800D02*
X216604Y351800D01*
X216604Y326400D02*
X203396Y326400D01*
X203396Y301000D02*
X216604Y301000D01*
X216604Y275600D02*
X203396Y275600D01*
X203396Y250200D02*
X216604Y250200D01*
X216604Y224800D02*
X203396Y224800D01*
X203396Y199400D02*
X216604Y199400D01*
X216604Y174000D02*
X203396Y174000D01*
X203396Y148600D02*
X216604Y148600D01*
X216604Y123200D02*
X203396Y123200D01*
X203396Y97800D02*
X216604Y97800D01*
X216604Y72400D02*
X203396Y72400D01*
X279596Y72400D02*
X292804Y72400D01*
X292804Y97800D02*
X279596Y97800D01*
X279596Y123200D02*
X292804Y123200D01*
X292804Y148600D02*
X279596Y148600D01*
X279596Y174000D02*
X292804Y174000D01*
X292804Y199400D02*
X279596Y199400D01*
X279596Y224800D02*
X292804Y224800D01*
X292804Y250200D02*
X279596Y250200D01*
X279596Y275600D02*
X292804Y275600D01*
X292804Y301000D02*
X279596Y301000D01*
X279596Y326400D02*
X292804Y326400D01*
X292804Y351800D02*
X279596Y351800D01*
X279596Y377200D02*
X292804Y377200D01*
X292804Y402600D02*
X279596Y402600D01*
D11*
X13320Y121370D03*
X13320Y95970D03*
X13320Y70570D03*
X13320Y45170D03*
X13320Y19770D03*
D13*
X476410Y451160D03*
X476410Y371160D03*
D14*
X476410Y431160D03*
X476410Y411160D03*
X476410Y391160D03*
D15*
X430530Y274320D03*
X448310Y77470D03*
D16*
X448310Y173990D01*
X430530Y191770D02*
X430530Y274320D01*
X430530Y191770D02*
X448310Y173990D01*
D15*
X430530Y402590D03*
D16*
X430530Y274320D01*
D15*
X48260Y391160D03*
X382270Y452120D03*
X281940Y452120D03*
X262890Y172720D03*
X457200Y190500D03*
D16*
X457200Y391950D01*
X476410Y411160D01*
D15*
X165100Y25400D03*
D16*
X165100Y292100D01*
D15*
X165100Y292100D03*
X152400Y50800D03*
D16*
X152400Y292100D01*
D15*
X152400Y292100D03*
D16*
X123200Y402600D02*
X210000Y402600D01*
X123200Y402600D02*
X101600Y381000D01*
X101600Y209650D01*
X13320Y121370D01*
X210000Y402600D02*
X237500Y402600D01*
X254000Y419100D01*
X254000Y469900D01*
D15*
X254000Y469900D03*
X55880Y379730D03*
X173990Y355600D03*
D16*
X173990Y108410D01*
X210000Y72400D01*
D15*
X64770Y374650D03*
X64770Y237490D03*
D16*
X64770Y374650D01*
D15*
X72390Y367030D03*
X72390Y261620D03*
D16*
X72390Y367030D01*
D15*
X88900Y419100D03*
X88900Y228600D03*
D16*
X88900Y419100D01*
D15*
X325120Y58420D03*
X325120Y27940D03*
D16*
X325120Y58420D01*
M02*
