M48
;GenerationSoftware,Autodesk,EAGLE,8.7.1*%
;CreationDate,2018-04-15T22:34:25Z*%
FMAT,2
ICI,OFF
METRIC,TZ,000.000
T7C0.350
T6C0.800
T5C0.813
T4C0.900
T3C1.000
T2C1.016
%
G90
M71
T2
X48895Y19050
X1270Y34290
X48895Y34290
X1270Y31750
X1270Y29210
X1270Y26670
X1270Y24130
X1270Y21590
X1270Y19050
X1270Y16510
X48895Y16510
X48895Y21590
X48895Y24130
X48895Y26670
X1332Y12137
X1332Y9597
X1332Y7057
X1332Y4517
X1332Y1977
X48895Y29210
X48895Y31750
T3
X47641Y45116
X47641Y37116
T4
X8690Y43709
X4290Y43709
T5
X21000Y37720
X21000Y40260
X28620Y7240
X21000Y35180
X21000Y32640
X21000Y30100
X21000Y27560
X21000Y25020
X21000Y22480
X21000Y19940
X21000Y17400
X21000Y14860
X21000Y12320
X21000Y9780
X21000Y7240
X28620Y9780
X28620Y12320
X28620Y14860
X28620Y17400
X28620Y19940
X28620Y22480
X28620Y25020
X28620Y27560
X28620Y30100
X28620Y32640
X28620Y35180
X28620Y37720
X28620Y40260
T6
X47641Y43116
X47641Y41116
X47641Y39116
T7
X15240Y29210
X43053Y27432
X44831Y7747
X43053Y40259
X4826Y39116
X38227Y45212
X28194Y45212
X26289Y17272
X45720Y19050
X16510Y2540
X16510Y29210
X15240Y5080
X32512Y2794
X25400Y46990
X5588Y37973
X17399Y35560
X6477Y37465
X6477Y23749
X7239Y36703
X7239Y26162
X8890Y41910
X8890Y22860
X32512Y5842
M30